<?xml version="1.0" encoding="UTF-8"?>
<svg version="1.1" xmlns="http://www.w3.org/2000/svg" width="235" height="235">
<path d="M0 0 C1.32 0.66 2.64 1.32 4 2 C4.33 1.67 4.66 1.34 5 1 C7.6567281 0.89551745 10.28769143 0.8566766 12.94512939 0.85955811 C14.2090623 0.85510142 14.2090623 0.85510142 15.4985292 0.8505547 C18.34440691 0.8418283 21.19024275 0.84035614 24.03613281 0.83886719 C26.06755158 0.83424174 28.09896948 0.82921746 30.13038635 0.82382202 C35.66560996 0.81066834 41.20082143 0.80424712 46.73605824 0.79981136 C50.19132718 0.79688499 53.64659278 0.792781 57.10186005 0.78830719 C67.90392551 0.77462352 78.70598335 0.76496152 89.50805688 0.7611053 C101.99313655 0.75662434 114.47810675 0.73907826 126.96315312 0.7101047 C136.60223976 0.6885095 146.24129556 0.67840215 155.88040614 0.67706418 C161.64243313 0.67601446 167.40435735 0.67007146 173.16635895 0.65224457 C178.58684617 0.63580159 184.00715295 0.63359004 189.42765617 0.64238358 C191.41868255 0.64315602 193.40971848 0.6387841 195.4007206 0.62892532 C198.11634234 0.61626591 200.83131924 0.62204989 203.54693604 0.63250732 C204.33711601 0.62445092 205.12729598 0.61639452 205.94142079 0.60809398 C210.47589564 0.64900502 213.47048041 1.07473347 217 4 C220.42994101 8.14896976 220.42511294 12.21519069 220.38095093 17.38145447 C220.3856309 18.22270498 220.39031087 19.0639555 220.39513266 19.93069845 C220.40709373 22.74814903 220.39762104 25.56511421 220.38818359 28.38256836 C220.39224883 30.40310449 220.39759044 32.4236384 220.40411377 34.44416809 C220.41779972 39.93175853 220.41248315 45.41917991 220.40297651 50.90677333 C220.39538554 56.64818578 220.40242406 62.38958369 220.40713501 68.1309967 C220.41259463 77.77412517 220.40539596 87.41718473 220.39111328 97.06030273 C220.37479103 108.20921063 220.38007141 119.35795391 220.3965925 130.50685781 C220.41020696 140.07726352 220.41212706 149.64761968 220.40427649 159.21803194 C220.39959918 164.93474403 220.39897668 170.65137875 220.40888596 176.36808586 C220.41755255 181.74351009 220.41153915 187.11872215 220.39420319 192.49412346 C220.39023653 194.46698657 220.39137544 196.43986754 220.39799118 198.41272354 C220.4061897 201.10591067 220.39590546 203.79841806 220.38095093 206.49156189 C220.38764309 207.27220959 220.39433526 208.05285729 220.40123022 208.85716099 C220.34978362 213.63433409 219.66085173 217.00265404 217 221 C213.48484893 223.86676642 208.98244191 223.28128234 204.65614319 223.26069641 C203.38224005 223.26643473 203.38224005 223.26643473 202.08260149 223.27228898 C199.23216971 223.28262132 196.38193927 223.27862638 193.53149414 223.2746582 C191.4897798 223.27900454 189.44806709 223.28418742 187.40635681 223.29014587 C181.85682984 223.30355532 176.30737088 223.30411239 170.75783086 223.30158257 C166.12792931 223.30051422 161.49804161 223.30539274 156.86814302 223.310188 C145.94732249 223.32128983 135.02653634 223.32171673 124.10571289 223.31567383 C112.83241334 223.3096319 101.55923853 223.32194911 90.28596026 223.3432439 C80.61283733 223.36084546 70.93975416 223.36686355 61.26661581 223.36360615 C55.48675645 223.36179091 49.70698608 223.36445359 43.92714119 223.37832069 C38.49264986 223.39087094 33.05835337 223.38898148 27.62386513 223.37590981 C25.62800278 223.37353839 23.63212683 223.37629885 21.63628006 223.38453293 C18.91423907 223.39495424 16.19285741 223.38693693 13.47084045 223.3742218 C12.28280362 223.38528323 12.28280362 223.38528323 11.07076603 223.39656812 C6.5489239 223.35205268 3.53179137 222.90995917 0 220 C-2.81371699 216.39016209 -2.2890279 211.95744893 -2.2784729 207.58453369 C-2.2842653 206.72765355 -2.2900577 205.87077341 -2.29602563 204.9879272 C-2.31305283 202.1120307 -2.31590448 199.23629442 -2.31884766 196.36035156 C-2.32814395 194.30067042 -2.33831217 192.24099306 -2.34928894 190.18132019 C-2.37663664 184.58463613 -2.3917525 178.98797731 -2.40471697 173.39124393 C-2.42032663 167.54422669 -2.44712374 161.69726115 -2.4727478 155.85028076 C-2.51957395 144.77586041 -2.5562995 133.70143037 -2.58942068 122.62696147 C-2.62761496 110.02006333 -2.67703217 97.41321707 -2.72740483 84.80636263 C-2.83078175 58.87094684 -2.92002342 32.93549775 -3 7 C-2.34 7 -1.68 7 -1 7 C-1 5.68 -1 4.36 -1 3 C-0.67 2.01 -0.34 1.02 0 0 Z " fill="#030000" transform="translate(9,6)"/>
<path d="M0 0 C2.6484375 0.27734375 2.6484375 0.27734375 4.421875 1.7109375 C4.95039062 2.37222656 5.47890625 3.03351562 6.0234375 3.71484375 C6.54679687 4.35292969 7.07015625 4.99101563 7.609375 5.6484375 C8.28226563 6.51597656 8.95515625 7.38351563 9.6484375 8.27734375 C10.15955078 8.933396 10.67066406 9.58944824 11.19726562 10.26538086 C13.01656113 12.60096976 14.83278071 14.93892531 16.6484375 17.27734375 C17.76818257 18.7187862 18.88797316 20.16019329 20.0078125 21.6015625 C20.56057861 22.31304443 21.11334473 23.02452637 21.68286133 23.75756836 C34.9955704 40.90771927 34.9955704 40.90771927 48.640625 57.79296875 C51.01451136 60.73030673 53.25805108 63.74660487 55.45703125 66.81640625 C56.60294697 68.42564799 56.60294697 68.42564799 58.6484375 69.27734375 C59.3084375 67.29734375 59.9684375 65.31734375 60.6484375 63.27734375 C56.0284375 59.97734375 51.4084375 56.67734375 46.6484375 53.27734375 C46.9784375 51.29734375 47.3084375 49.31734375 47.6484375 47.27734375 C51.22784486 46.80931811 52.53756798 47.20522757 55.62109375 49.2109375 C56.64074219 50.03722656 57.66039062 50.86351562 58.7109375 51.71484375 C63.15809497 55.7223556 63.15809497 55.7223556 68.6484375 57.27734375 C71.25093726 55.86378805 71.25093726 55.86378805 73.7734375 53.83984375 C78.47231226 50.27734375 78.47231226 50.27734375 80.6484375 50.27734375 C80.3184375 49.61734375 79.9884375 48.95734375 79.6484375 48.27734375 C79.5503644 45.41303233 79.50941101 42.57858491 79.5234375 39.71484375 C79.51957031 38.92142578 79.51570313 38.12800781 79.51171875 37.31054688 C79.52180683 31.40397442 79.52180683 31.40397442 80.6484375 30.27734375 C82.31460865 30.23670543 83.98231845 30.23462275 85.6484375 30.27734375 C87.56470587 35.25964151 88.203149 40.00419042 88.6484375 45.27734375 C96.43152119 43.22916383 99.1416156 39.72556586 103.6484375 33.27734375 C105.5483099 30.70221549 107.47456833 28.14707042 109.3984375 25.58984375 C110.16244873 24.56721436 110.16244873 24.56721436 110.94189453 23.52392578 C114.93606546 18.18543032 119.02294669 12.92602218 123.17089844 7.70629883 C125.09786439 5.27729227 126.92705953 2.85941071 128.6484375 0.27734375 C131.1484375 -0.03515625 131.1484375 -0.03515625 133.6484375 0.27734375 C135.6484375 2.27734375 135.6484375 2.27734375 135.88894653 4.15029907 C135.88450531 4.90974823 135.88006409 5.66919739 135.87548828 6.45166016 C135.87526169 7.74277206 135.87526169 7.74277206 135.87503052 9.05996704 C135.86470795 9.99021698 135.85438538 10.92046692 135.84375 11.87890625 C135.8409201 12.83050629 135.83809021 13.78210632 135.83517456 14.76254272 C135.82395739 17.80926967 135.79885013 20.85570529 135.7734375 23.90234375 C135.76340968 25.96483951 135.75428349 28.02733987 135.74609375 30.08984375 C135.72401304 35.15245642 135.6894728 40.21485065 135.6484375 45.27734375 C136.26073715 45.47305969 136.8730368 45.66877563 137.50389099 45.87042236 C138.31012405 46.13264587 139.11635712 46.39486938 139.94702148 46.66503906 C140.74494614 46.92263 141.54287079 47.18022095 142.36497498 47.44561768 C157.05085379 52.79478728 168.22141861 66.10260861 175.6484375 79.27734375 C177.23678444 82.87922589 178.5374876 86.50222014 179.6484375 90.27734375 C180.00421875 91.46972656 180.36 92.66210938 180.7265625 93.890625 C185.16872783 112.15953986 181.38367505 130.97497661 172.078125 146.9453125 C171.60632813 147.71488281 171.13453125 148.48445312 170.6484375 149.27734375 C170.13925781 150.15261719 169.63007813 151.02789062 169.10546875 151.9296875 C164.51325432 159.32893918 156.10880837 165.8366468 148.6484375 170.27734375 C147.9884375 170.27734375 147.3284375 170.27734375 146.6484375 170.27734375 C146.6484375 172.91734375 146.6484375 175.55734375 146.6484375 178.27734375 C144.40592872 179.33863801 142.15694661 180.37615608 139.8984375 181.40234375 C139.26421875 181.70527344 138.63 182.00820312 137.9765625 182.3203125 C133.23391544 184.44462316 133.23391544 184.44462316 130.2421875 183.58984375 C128.25773824 181.95559142 127.98285298 180.78545982 127.6484375 178.27734375 C127.08560059 178.4374292 126.52276367 178.59751465 125.94287109 178.76245117 C109.00211237 182.5641175 91.36525939 178.47501036 76.90625 169.4765625 C63.43394342 160.38194787 50.83785508 146.04761355 47.07324219 129.79394531 C46.60697378 127.20934593 46.18141552 124.62175287 45.7734375 122.02734375 C44.32739478 113.18321352 41.43776466 108.27883505 35.07226562 101.81152344 C32.42520539 98.95930696 30.19241927 95.78975704 27.8984375 92.65234375 C23.52698621 86.74839668 19.05731593 80.93234713 14.5234375 75.15234375 C-3.47488361 52.15627675 -3.47488361 52.15627675 -3.48095703 45.56811523 C-3.48410919 44.59047714 -3.48726135 43.61283905 -3.49050903 42.60557556 C-3.4884848 41.54722 -3.48646057 40.48886444 -3.484375 39.3984375 C-3.48533173 38.31603287 -3.48628845 37.23362823 -3.48727417 36.11842346 C-3.48795548 33.82772768 -3.48610461 31.53702998 -3.48193359 29.24633789 C-3.47657951 25.72603047 -3.48188294 22.20585034 -3.48828125 18.68554688 C-3.48762056 16.46484347 -3.48633959 14.24414014 -3.484375 12.0234375 C-3.48639923 10.96305771 -3.48842346 9.90267792 -3.49050903 8.81016541 C-3.48735687 7.83567947 -3.48420471 6.86119354 -3.48095703 5.85717773 C-3.48016144 4.99495102 -3.47936584 4.1327243 -3.47854614 3.24436951 C-3.29143705 0.34597722 -2.88925191 0.34075895 0 0 Z " fill="#E2142E" transform="translate(38.3515625,37.72265625)"/>
<path d="M0 0 C2.6484375 0.27734375 2.6484375 0.27734375 4.421875 1.7109375 C4.95039062 2.37222656 5.47890625 3.03351562 6.0234375 3.71484375 C6.54679687 4.35292969 7.07015625 4.99101563 7.609375 5.6484375 C8.28226563 6.51597656 8.95515625 7.38351563 9.6484375 8.27734375 C10.15955078 8.933396 10.67066406 9.58944824 11.19726562 10.26538086 C13.01656113 12.60096976 14.83278071 14.93892531 16.6484375 17.27734375 C17.76818257 18.7187862 18.88797316 20.16019329 20.0078125 21.6015625 C20.56057861 22.31304443 21.11334473 23.02452637 21.68286133 23.75756836 C34.9955704 40.90771927 34.9955704 40.90771927 48.640625 57.79296875 C51.01451136 60.73030673 53.25805108 63.74660487 55.45703125 66.81640625 C56.60294697 68.42564799 56.60294697 68.42564799 58.6484375 69.27734375 C59.3084375 67.29734375 59.9684375 65.31734375 60.6484375 63.27734375 C56.0284375 59.97734375 51.4084375 56.67734375 46.6484375 53.27734375 C46.9784375 51.29734375 47.3084375 49.31734375 47.6484375 47.27734375 C51.22784486 46.80931811 52.53756798 47.20522757 55.62109375 49.2109375 C56.64074219 50.03722656 57.66039062 50.86351562 58.7109375 51.71484375 C63.15809497 55.7223556 63.15809497 55.7223556 68.6484375 57.27734375 C71.25093726 55.86378805 71.25093726 55.86378805 73.7734375 53.83984375 C78.47231226 50.27734375 78.47231226 50.27734375 80.6484375 50.27734375 C80.3184375 49.61734375 79.9884375 48.95734375 79.6484375 48.27734375 C79.5503644 45.41303233 79.50941101 42.57858491 79.5234375 39.71484375 C79.51957031 38.92142578 79.51570313 38.12800781 79.51171875 37.31054688 C79.52180683 31.40397442 79.52180683 31.40397442 80.6484375 30.27734375 C82.31460865 30.23670543 83.98231845 30.23462275 85.6484375 30.27734375 C87.87441464 35.72465367 88.07496249 40.85521952 88.2734375 46.65234375 C88.31210938 47.57917969 88.35078125 48.50601563 88.390625 49.4609375 C88.48431341 51.73288145 88.57003098 54.00482971 88.6484375 56.27734375 C89.32390625 56.07238281 89.999375 55.86742187 90.6953125 55.65625 C91.58734375 55.38683594 92.479375 55.11742187 93.3984375 54.83984375 C94.28015625 54.57300781 95.161875 54.30617187 96.0703125 54.03125 C98.6484375 53.27734375 98.6484375 53.27734375 100.69824219 52.95068359 C103.1159712 52.3693464 103.1159712 52.3693464 104.4296875 48.75 C105.01748197 47.28583324 105.58984398 45.81539786 106.1484375 44.33984375 C109.06640311 36.6718565 109.06640311 36.6718565 111.8671875 34.7734375 C112.74890625 34.52787109 112.74890625 34.52787109 113.6484375 34.27734375 C115.1334375 35.26734375 115.1334375 35.26734375 116.6484375 36.27734375 C116.11566858 41.49847914 114.70401568 45.48099466 112.6484375 50.27734375 C112.2430272 52.59923911 111.88770756 54.93249719 111.6484375 57.27734375 C110.9884375 57.27734375 110.3284375 57.27734375 109.6484375 57.27734375 C109.6484375 58.92734375 109.6484375 60.57734375 109.6484375 62.27734375 C108.9884375 62.27734375 108.3284375 62.27734375 107.6484375 62.27734375 C107.6484375 62.93734375 107.6484375 63.59734375 107.6484375 64.27734375 C107.0090625 64.40109375 106.3696875 64.52484375 105.7109375 64.65234375 C105.0303125 64.85859375 104.3496875 65.06484375 103.6484375 65.27734375 C103.3184375 65.93734375 102.9884375 66.59734375 102.6484375 67.27734375 C100.5859375 67.90234375 100.5859375 67.90234375 98.6484375 68.27734375 C99.1434375 66.29734375 99.1434375 66.29734375 99.6484375 64.27734375 C98.3284375 64.27734375 97.0084375 64.27734375 95.6484375 64.27734375 C98.22105589 71.60803679 101.86494106 76.06035232 107.6484375 81.15234375 C108.36 81.80203125 109.0715625 82.45171875 109.8046875 83.12109375 C112.98451772 86.00429802 116.1867779 88.73566614 119.6484375 91.27734375 C119.06300483 94.8253609 117.77849088 96.54459066 115.296875 99.10546875 C114.60980469 99.82347656 113.92273438 100.54148437 113.21484375 101.28125 C112.49167969 102.02246094 111.76851563 102.76367188 111.0234375 103.52734375 C109.6131856 104.98953863 108.20432257 106.45307434 106.796875 107.91796875 C106.10255371 108.64048828 105.40823242 109.36300781 104.69287109 110.10742188 C101.57898617 113.4124385 98.60998856 116.83612468 95.6484375 120.27734375 C94.19279152 121.94635803 92.73504 123.61354328 91.2734375 125.27734375 C90.60570312 126.04046875 89.93796875 126.80359375 89.25 127.58984375 C88.72148438 128.14671875 88.19296875 128.70359375 87.6484375 129.27734375 C87.3184375 129.27734375 86.9884375 129.27734375 86.6484375 129.27734375 C86.6484375 110.79734375 86.6484375 92.31734375 86.6484375 73.27734375 C84.0084375 73.27734375 81.3684375 73.27734375 78.6484375 73.27734375 C77.6484375 72.27734375 77.6484375 72.27734375 77.3984375 69.46484375 C77.6755859 65.9312017 78.45988834 64.93239944 80.6484375 62.27734375 C74.53232335 66.3282765 69.37621401 70.87380127 65.6484375 77.27734375 C65.14152491 80.61609287 65.14152491 80.61609287 65.6484375 83.27734375 C64.6484375 84.27734375 64.6484375 84.27734375 62.79296875 84.41015625 C58.29859005 84.3950997 54.0722706 84.18479669 49.6484375 83.27734375 C48.17952879 89.60642433 46.99996223 95.91769899 46.0234375 102.33984375 C45.889375 103.20544922 45.7553125 104.07105469 45.6171875 104.96289062 C45.29164297 107.06730349 44.96965982 109.1722668 44.6484375 111.27734375 C41.57631474 109.94394145 39.86316009 108.64238328 37.87109375 105.9609375 C37.36425049 105.28772461 36.85740723 104.61451172 36.33520508 103.92089844 C35.79919678 103.19290039 35.26318848 102.46490234 34.7109375 101.71484375 C33.54968749 100.1665104 32.38822305 98.61833786 31.2265625 97.0703125 C30.63423828 96.27544434 30.04191406 95.48057617 29.43164062 94.66162109 C26.63844251 90.92690412 23.79886664 87.22810819 20.9609375 83.52734375 C19.88146355 82.11461914 18.80203566 80.70185934 17.72265625 79.2890625 C15.77510286 76.74357072 13.82017574 74.2041484 11.85546875 71.671875 C-3.47511858 51.9013903 -3.47511858 51.9013903 -3.48095703 45.56811523 C-3.48410919 44.59047714 -3.48726135 43.61283905 -3.49050903 42.60557556 C-3.4884848 41.54722 -3.48646057 40.48886444 -3.484375 39.3984375 C-3.48533173 38.31603287 -3.48628845 37.23362823 -3.48727417 36.11842346 C-3.48795548 33.82772768 -3.48610461 31.53702998 -3.48193359 29.24633789 C-3.47657951 25.72603047 -3.48188294 22.20585034 -3.48828125 18.68554688 C-3.48762056 16.46484347 -3.48633959 14.24414014 -3.484375 12.0234375 C-3.48639923 10.96305771 -3.48842346 9.90267792 -3.49050903 8.81016541 C-3.48735687 7.83567947 -3.48420471 6.86119354 -3.48095703 5.85717773 C-3.48016144 4.99495102 -3.47936584 4.1327243 -3.47854614 3.24436951 C-3.29143705 0.34597722 -2.88925191 0.34075895 0 0 Z " fill="#EC5A6A" transform="translate(38.3515625,37.72265625)"/>
<path d="M0 0 C1.32 0.66 2.64 1.32 4 2 C4.33 1.67 4.66 1.34 5 1 C7.6567281 0.89551745 10.28769143 0.8566766 12.94512939 0.85955811 C14.2090623 0.85510142 14.2090623 0.85510142 15.4985292 0.8505547 C18.34440691 0.8418283 21.19024275 0.84035614 24.03613281 0.83886719 C26.06755158 0.83424174 28.09896948 0.82921746 30.13038635 0.82382202 C35.66560996 0.81066834 41.20082143 0.80424712 46.73605824 0.79981136 C50.19132718 0.79688499 53.64659278 0.792781 57.10186005 0.78830719 C67.90392551 0.77462352 78.70598335 0.76496152 89.50805688 0.7611053 C101.99313655 0.75662434 114.47810675 0.73907826 126.96315312 0.7101047 C136.60223976 0.6885095 146.24129556 0.67840215 155.88040614 0.67706418 C161.64243313 0.67601446 167.40435735 0.67007146 173.16635895 0.65224457 C178.58684617 0.63580159 184.00715295 0.63359004 189.42765617 0.64238358 C191.41868255 0.64315602 193.40971848 0.6387841 195.4007206 0.62892532 C198.11634234 0.61626591 200.83131924 0.62204989 203.54693604 0.63250732 C204.33711601 0.62445092 205.12729598 0.61639452 205.94142079 0.60809398 C210.47589564 0.64900502 213.47048041 1.07473347 217 4 C220.42994101 8.14896976 220.42511294 12.21519069 220.38095093 17.38145447 C220.3856309 18.22270498 220.39031087 19.0639555 220.39513266 19.93069845 C220.40709373 22.74814903 220.39762104 25.56511421 220.38818359 28.38256836 C220.39224883 30.40310449 220.39759044 32.4236384 220.40411377 34.44416809 C220.41779972 39.93175853 220.41248315 45.41917991 220.40297651 50.90677333 C220.39538554 56.64818578 220.40242406 62.38958369 220.40713501 68.1309967 C220.41259463 77.77412517 220.40539596 87.41718473 220.39111328 97.06030273 C220.37479103 108.20921063 220.38007141 119.35795391 220.3965925 130.50685781 C220.41020696 140.07726352 220.41212706 149.64761968 220.40427649 159.21803194 C220.39959918 164.93474403 220.39897668 170.65137875 220.40888596 176.36808586 C220.41755255 181.74351009 220.41153915 187.11872215 220.39420319 192.49412346 C220.39023653 194.46698657 220.39137544 196.43986754 220.39799118 198.41272354 C220.4061897 201.10591067 220.39590546 203.79841806 220.38095093 206.49156189 C220.38764309 207.27220959 220.39433526 208.05285729 220.40123022 208.85716099 C220.34978362 213.63433409 219.66085173 217.00265404 217 221 C213.48484893 223.86676642 208.98244191 223.28128234 204.65614319 223.26069641 C203.38224005 223.26643473 203.38224005 223.26643473 202.08260149 223.27228898 C199.23216971 223.28262132 196.38193927 223.27862638 193.53149414 223.2746582 C191.4897798 223.27900454 189.44806709 223.28418742 187.40635681 223.29014587 C181.85682984 223.30355532 176.30737088 223.30411239 170.75783086 223.30158257 C166.12792931 223.30051422 161.49804161 223.30539274 156.86814302 223.310188 C145.94732249 223.32128983 135.02653634 223.32171673 124.10571289 223.31567383 C112.83241334 223.3096319 101.55923853 223.32194911 90.28596026 223.3432439 C80.61283733 223.36084546 70.93975416 223.36686355 61.26661581 223.36360615 C55.48675645 223.36179091 49.70698608 223.36445359 43.92714119 223.37832069 C38.49264986 223.39087094 33.05835337 223.38898148 27.62386513 223.37590981 C25.62800278 223.37353839 23.63212683 223.37629885 21.63628006 223.38453293 C18.91423907 223.39495424 16.19285741 223.38693693 13.47084045 223.3742218 C12.28280362 223.38528323 12.28280362 223.38528323 11.07076603 223.39656812 C6.5489239 223.35205268 3.53179137 222.90995917 0 220 C-2.81371699 216.39016209 -2.2890279 211.95744893 -2.2784729 207.58453369 C-2.2842653 206.72765355 -2.2900577 205.87077341 -2.29602563 204.9879272 C-2.31305283 202.1120307 -2.31590448 199.23629442 -2.31884766 196.36035156 C-2.32814395 194.30067042 -2.33831217 192.24099306 -2.34928894 190.18132019 C-2.37663664 184.58463613 -2.3917525 178.98797731 -2.40471697 173.39124393 C-2.42032663 167.54422669 -2.44712374 161.69726115 -2.4727478 155.85028076 C-2.51957395 144.77586041 -2.5562995 133.70143037 -2.58942068 122.62696147 C-2.62761496 110.02006333 -2.67703217 97.41321707 -2.72740483 84.80636263 C-2.83078175 58.87094684 -2.92002342 32.93549775 -3 7 C-2.34 7 -1.68 7 -1 7 C-1 5.68 -1 4.36 -1 3 C-0.67 2.01 -0.34 1.02 0 0 Z M3.51737309 6.51500034 C1.36904926 10.03330709 1.44671857 13.27426813 1.49206543 17.2746582 C1.48582547 18.11646543 1.4795855 18.95827265 1.47315645 19.82558918 C1.45718086 22.65093675 1.46984843 25.47542703 1.48242188 28.30078125 C1.47700279 30.32441716 1.46988133 32.34804912 1.46118164 34.37167358 C1.44292009 39.87162797 1.45002758 45.37128279 1.46269798 50.87124252 C1.47281095 56.62160817 1.46343705 62.37194782 1.45715332 68.12231445 C1.44987195 77.7798321 1.4594775 87.43722747 1.47851562 97.09472656 C1.50028523 108.26698639 1.49323421 119.43895426 1.47121 130.61120701 C1.45306999 140.19600966 1.45049085 149.78072432 1.46096468 159.3655386 C1.46720728 165.09340133 1.46801413 170.82112675 1.45481873 176.54898071 C1.44328125 181.93347495 1.45124765 187.31759203 1.47439575 192.70204544 C1.47969407 194.68058266 1.47814996 196.65915152 1.46934509 198.63767624 C1.45845033 201.33399623 1.47207932 204.02909979 1.49206543 206.7253418 C1.48314254 207.5124973 1.47421966 208.29965281 1.46502638 209.11066151 C1.51264228 212.41139926 1.78341228 214.64523458 3.51737309 217.48542023 C7.02339516 219.62434416 10.24427467 219.55337881 14.22996521 219.50793457 C15.06698331 219.51417453 15.90400142 219.5204145 16.76638371 219.52684355 C19.57557941 219.54281869 22.38391285 219.53015172 25.19311523 219.51757812 C27.20527656 219.52299728 29.21743392 219.53011877 31.22958374 219.53881836 C36.69861507 219.55708035 42.16734515 219.54997193 47.63638186 219.53730202 C53.35558314 219.52718788 59.0747583 219.53656341 64.79396057 219.54284668 C74.40020385 219.55012829 84.0063242 219.54052247 93.61254883 219.52148438 C104.72230525 219.49972091 115.831768 219.50676122 126.94151729 219.52879 C136.47453147 219.54693669 146.00745719 219.54950568 155.54048306 219.53903532 C161.23651987 219.5327956 166.93241861 219.53197785 172.62844658 219.54518127 C177.9842174 219.55672823 183.33960935 219.54873491 188.6953392 219.52560425 C190.66216846 219.52031075 192.62902954 219.52184185 194.59584618 219.53065491 C197.27867966 219.54156879 199.96029548 219.52789728 202.64305115 219.50793457 C203.42340286 219.51685746 204.20375458 219.52578034 205.00775331 219.53497362 C208.47443216 219.48486045 210.88005814 219.06101888 213.98262691 217.48262691 C216.7779712 214.04261029 216.69544196 211.01662632 216.63491821 206.77003479 C216.64271817 205.93301669 216.65051812 205.09599858 216.65855443 204.23361629 C216.67852451 201.42426022 216.66269057 198.61625128 216.64697266 195.80688477 C216.65374661 193.79472054 216.66264848 191.78256251 216.67352295 189.77041626 C216.69635067 184.30132946 216.68746508 178.83271335 216.67162752 173.36361814 C216.65898485 167.64441215 216.67070426 161.92524696 216.67855835 156.20603943 C216.68766039 146.59976961 216.67565313 136.99369185 216.65185547 127.38745117 C216.624651 116.27763834 216.6334514 105.16828438 216.6609875 94.05848271 C216.6836709 84.52545413 216.68688213 74.99256378 216.67379415 65.45951694 C216.66599447 59.76345259 216.66497225 54.06760396 216.68147659 48.37155342 C216.6959105 43.01570389 216.68591894 37.66044631 216.65700531 32.3046608 C216.65038845 30.33783514 216.65230237 28.37095976 216.66331863 26.40415382 C216.67696222 23.72107755 216.65987346 21.03990355 216.63491821 18.35694885 C216.64607182 17.57659714 216.65722543 16.79624542 216.66871703 15.99224669 C216.60078361 12.23270273 216.1030638 10.15239829 213.98262691 7.01695251 C210.17234267 4.44031031 207.09056099 4.30435477 202.64305115 4.37181091 C201.80447305 4.36471653 200.96589496 4.35762214 200.10190541 4.35031277 C197.29330012 4.33271714 194.48607586 4.35084513 191.67749023 4.36889648 C189.66355763 4.3637583 187.64962952 4.35647779 185.63571167 4.34721375 C180.16673635 4.32867997 174.69824777 4.34165052 169.22929263 4.36130404 C163.50963177 4.37767315 157.79000216 4.36888017 152.07032776 4.36378479 C142.46583263 4.35926227 132.86153217 4.37514454 123.25708008 4.40307617 C112.14670646 4.4351378 101.03668377 4.43510927 89.92628521 4.4178614 C79.24485454 4.40200908 68.56355277 4.40872097 57.88212776 4.42579842 C53.33313639 4.43267815 48.78424805 4.43162702 44.2352581 4.42425346 C38.8811024 4.41660385 33.52734711 4.4286736 28.17325974 4.45610237 C26.20601528 4.46300084 24.23873354 4.4630686 22.2714901 4.45588684 C19.5905319 4.44722583 16.91081903 4.46309073 14.22996521 4.4853363 C13.44738277 4.47709554 12.66480034 4.46885477 11.85850328 4.46036428 C8.56995368 4.51089564 6.34695966 4.78827105 3.51737309 6.51500034 Z " fill="#CB6570" transform="translate(9,6)"/>
<path d="M0 0 C1.2065625 0.0309375 1.2065625 0.0309375 2.4375 0.0625 C4.66347714 5.50980992 4.86402499 10.64037577 5.0625 16.4375 C5.12050781 17.82775391 5.12050781 17.82775391 5.1796875 19.24609375 C5.27337591 21.5180377 5.35909348 23.78998596 5.4375 26.0625 C6.11296875 25.85753906 6.7884375 25.65257813 7.484375 25.44140625 C8.37640625 25.17199219 9.2684375 24.90257813 10.1875 24.625 C11.06921875 24.35816406 11.9509375 24.09132813 12.859375 23.81640625 C15.4375 23.0625 15.4375 23.0625 17.48730469 22.73583984 C19.9050337 22.15450265 19.9050337 22.15450265 21.21875 18.53515625 C21.80654447 17.07098949 22.37890648 15.60055411 22.9375 14.125 C25.85546561 6.45701275 25.85546561 6.45701275 28.65625 4.55859375 C29.2440625 4.39488281 29.831875 4.23117188 30.4375 4.0625 C31.4275 4.7225 32.4175 5.3825 33.4375 6.0625 C32.90473108 11.28363539 31.49307818 15.26615091 29.4375 20.0625 C29.0320897 22.38439536 28.67677006 24.71765344 28.4375 27.0625 C27.7775 27.0625 27.1175 27.0625 26.4375 27.0625 C26.4375 28.7125 26.4375 30.3625 26.4375 32.0625 C25.7775 32.0625 25.1175 32.0625 24.4375 32.0625 C24.4375 32.7225 24.4375 33.3825 24.4375 34.0625 C23.798125 34.18625 23.15875 34.31 22.5 34.4375 C21.819375 34.64375 21.13875 34.85 20.4375 35.0625 C19.9425 36.0525 19.9425 36.0525 19.4375 37.0625 C17.375 37.6875 17.375 37.6875 15.4375 38.0625 C15.7675 36.7425 16.0975 35.4225 16.4375 34.0625 C15.1175 34.0625 13.7975 34.0625 12.4375 34.0625 C15.01011839 41.39319304 18.65400356 45.84550857 24.4375 50.9375 C25.1490625 51.5871875 25.860625 52.236875 26.59375 52.90625 C29.77358022 55.78945427 32.9758404 58.52082239 36.4375 61.0625 C35.85206733 64.61051715 34.56755338 66.32974691 32.0859375 68.890625 C31.39886719 69.60863281 30.71179688 70.32664062 30.00390625 71.06640625 C29.28074219 71.80761719 28.55757813 72.54882812 27.8125 73.3125 C26.4022481 74.77469488 24.99338507 76.23823059 23.5859375 77.703125 C22.89161621 78.42564453 22.19729492 79.14816406 21.48193359 79.89257812 C18.36804867 83.19759475 15.39905106 86.62128093 12.4375 90.0625 C10.98185402 91.73151428 9.5241025 93.39869953 8.0625 95.0625 C7.06089844 96.2071875 7.06089844 96.2071875 6.0390625 97.375 C5.51054688 97.931875 4.98203125 98.48875 4.4375 99.0625 C4.1075 99.0625 3.7775 99.0625 3.4375 99.0625 C3.4375 80.5825 3.4375 62.1025 3.4375 43.0625 C0.7975 43.0625 -1.8425 43.0625 -4.5625 43.0625 C-5.5625 42.0625 -5.5625 42.0625 -5.8125 39.25 C-5.5353516 35.71635795 -4.75104916 34.71755569 -2.5625 32.0625 C-8.67861415 36.11343275 -13.83472349 40.65895752 -17.5625 47.0625 C-18.06941259 50.40124912 -18.06941259 50.40124912 -17.5625 53.0625 C-18.5625 54.0625 -18.5625 54.0625 -22.46484375 54.25 C-27.83822865 54.19037853 -32.88922588 53.19954266 -38.125 52.0625 C-39.49495117 51.77632812 -39.49495117 51.77632812 -40.89257812 51.484375 C-43.11770087 51.01838071 -45.34076276 50.54433025 -47.5625 50.0625 C-47.60504356 48.06295254 -47.60330783 46.06208364 -47.5625 44.0625 C-47.0675 43.5675 -47.0675 43.5675 -46.5625 43.0625 C-40.86825407 43.27591297 -35.15861589 44.00377537 -29.5625 45.0625 C-28.5725 43.0825 -27.5825 41.1025 -26.5625 39.0625 C-25.9025 39.0625 -25.2425 39.0625 -24.5625 39.0625 C-23.9025 37.0825 -23.2425 35.1025 -22.5625 33.0625 C-27.1825 29.7625 -31.8025 26.4625 -36.5625 23.0625 C-36.2325 21.0825 -35.9025 19.1025 -35.5625 17.0625 C-31.98309264 16.59447436 -30.67336952 16.99038382 -27.58984375 18.99609375 C-26.57019531 19.82238281 -25.55054687 20.64867188 -24.5 21.5 C-20.05284253 25.50751185 -20.05284253 25.50751185 -14.5625 27.0625 C-11.96000024 25.6489443 -11.96000024 25.6489443 -9.4375 23.625 C-4.73862524 20.0625 -4.73862524 20.0625 -2.5625 20.0625 C-3.0575 19.0725 -3.0575 19.0725 -3.5625 18.0625 C-3.6605731 15.19818858 -3.70152649 12.36374116 -3.6875 9.5 C-3.69330078 8.30987305 -3.69330078 8.30987305 -3.69921875 7.09570312 C-3.6872533 0.08993301 -3.6872533 0.08993301 0 0 Z " fill="#E36071" transform="translate(121.5625,67.9375)"/>
<path d="M0 0 C3.45295192 0.58762514 5.15253295 1.75738889 7.65234375 4.17578125 C8.34078369 4.83384766 9.02922363 5.49191406 9.73852539 6.16992188 C10.46418701 6.87697266 11.18984863 7.58402344 11.9375 8.3125 C13.45518896 9.76749078 14.97342452 11.2219116 16.4921875 12.67578125 C17.24725586 13.4023291 18.00232422 14.12887695 18.78027344 14.87744141 C22.00338394 17.95946107 25.2778529 20.9838476 28.5625 24 C29.39285767 24.76437378 29.39285767 24.76437378 30.23999023 25.54418945 C31.49255316 26.6969675 32.74614173 27.84863101 34 29 C33.67 30.32 33.34 31.64 33 33 C29.52147832 33.34029508 26.04210091 33.6709387 22.5625 34 C21.58861328 34.09539062 20.61472656 34.19078125 19.61132812 34.2890625 C13.70951151 34.84174098 7.92744322 35.09807559 2 35 C2.33845947 35.7113208 2.67691895 36.4226416 3.02563477 37.15551758 C4.54810783 40.36980241 6.05544344 43.5909601 7.5625 46.8125 C8.09552734 47.93205078 8.62855469 49.05160156 9.17773438 50.20507812 C9.92700195 51.81479492 9.92700195 51.81479492 10.69140625 53.45703125 C11.15748291 54.44678955 11.62355957 55.43654785 12.10375977 56.45629883 C13 59 13 59 12 62 C9.9609375 63.1328125 9.9609375 63.1328125 7.375 64.125 C6.11816406 64.62386719 6.11816406 64.62386719 4.8359375 65.1328125 C2 66 2 66 -5 67 C-9.95 55.615 -9.95 55.615 -15 44 C-19.07666073 46.71777382 -21.74184011 48.51043631 -24.9375 51.875 C-30.3744113 57.40529337 -30.3744113 57.40529337 -32.6875 59.5625 C-33.20699219 60.05878906 -33.72648438 60.55507812 -34.26171875 61.06640625 C-36.74788697 62.40167412 -38.36460843 61.74976217 -41 61 C-42.68123437 47.46521422 -42.68123437 47.46521422 -38.796875 41.76953125 C-35.95615008 39.01806408 -33.04848053 36.51614013 -30 34 C-28.84008923 32.7609482 -27.71019837 31.49248538 -26.625 30.1875 C-23.35533378 26.35709392 -19.93665853 22.67985483 -16.5 19 C-7.88281367 9.81182831 -7.88281367 9.81182831 0 0 Z " fill="#FEFEFE" transform="translate(166,139)"/>
<path d="M0 0 C2.89907135 0.32352875 3.83964314 0.80879148 5.74609375 3.08203125 C15.15435612 18.26996519 19.39304915 33.43055368 16.46875 51.234375 C15.77729588 53.89497019 14.9695106 56.42850837 14 59 C13.70996094 59.77601563 13.41992188 60.55203125 13.12109375 61.3515625 C8.27394216 73.15508646 0.01420024 83.43384216 -11 90 C-13.04199219 89.90771484 -13.04199219 89.90771484 -15 89 C-16.37207031 87.00634766 -16.37207031 87.00634766 -17.578125 84.4140625 C-18.01640625 83.48335938 -18.4546875 82.55265625 -18.90625 81.59375 C-19.3496875 80.6140625 -19.793125 79.634375 -20.25 78.625 C-20.70890625 77.65304688 -21.1678125 76.68109375 -21.640625 75.6796875 C-25 68.44103423 -25 68.44103423 -25 65 C-14.77 64.01 -4.54 63.02 6 62 C4.99847421 57.99389682 4.72741785 57.36601937 1.89453125 54.78515625 C1.24677734 54.18711182 0.59902344 53.58906738 -0.06835938 52.97290039 C-0.76767578 52.34246826 -1.46699219 51.71203613 -2.1875 51.0625 C-2.89841797 50.40950928 -3.60933594 49.75651855 -4.34179688 49.08374023 C-5.8191838 47.72712019 -7.29953555 46.37372238 -8.78271484 45.0234375 C-12.21145291 41.89445918 -15.60362644 38.72650645 -19 35.5625 C-20.99902111 33.7072742 -22.99947851 31.85360819 -25 30 C-23.69230402 27.16149404 -22.26739654 24.9523779 -20.1875 22.625 C-19.57777344 21.94179687 -18.96804687 21.25859375 -18.33984375 20.5546875 C-14.7652893 16.65191854 -11.1588756 12.77850244 -7.53198242 8.92431641 C-4.84527073 6.05577312 -2.2657785 3.22314969 0 0 Z " fill="#060202" transform="translate(193,109)"/>
<path d="M0 0 C0 0.99 0 1.98 0 3 C-0.66 3.66 -1.32 4.32 -2 5 C-2.16681109 8.08347826 -2.16681109 8.08347826 -2 11 C0.64 11.33 3.28 11.66 6 12 C6.25667559 19.22374309 6.45120329 26.44647974 6.56993389 33.67388535 C6.62698155 37.0320945 6.71013526 40.3847967 6.82983398 43.74169922 C7.68963067 68.48729164 7.68963067 68.48729164 2.25996399 74.99468994 C-0.00124005 77.20734883 -2.48406885 79.08689083 -5 81 C-6.77336938 82.93290479 -8.37484272 84.93697939 -10 87 C-15.34589556 85.21803481 -17.4271111 79.77338599 -20 75 C-27.75879519 57.30519669 -26.90877264 41.08359254 -21 23 C-19.35 22.67 -17.7 22.34 -16 22 C-16.08378906 21.12472656 -16.16757813 20.24945313 -16.25390625 19.34765625 C-15.79018933 13.23372702 -11.10165691 9.27039596 -7 5 C-4.72932969 3.08309355 -2.53568015 1.5645686 0 0 Z " fill="#EE5A6A" transform="translate(119,99)"/>
<path d="M0 0 C3.3 0.33 6.6 0.66 10 1 C8.09165527 10.66894665 8.09165527 10.66894665 7.4765625 12.890625 C4.00710275 28.24725013 6.6965355 44.29152618 14.66015625 57.8203125 C16.05581969 59.92535571 17.48235174 61.98168428 19 64 C22.10412761 62.64571539 23.91475724 61.22865747 26.0625 58.625 C29.25014395 54.87727111 32.46630384 51.163731 35.75 47.5 C36.22187744 46.95939941 36.69375488 46.41879883 37.17993164 45.86181641 C38.39153695 44.51626152 39.69081398 43.25081467 41 42 C41.99 42 42.98 42 44 42 C44.2475 41.38125 44.495 40.7625 44.75 40.125 C46.20628639 37.64931313 47.37812506 37.04874998 50 36 C50 36.66 50 37.32 50 38 C50.66 38 51.32 38 52 38 C52.495 40.97 52.495 40.97 53 44 C52.34 44 51.68 44 51 44 C50.814375 44.8971875 50.814375 44.8971875 50.625 45.8125 C50 48 50 48 48 51 C46.68 51 45.36 51 44 51 C43.8453125 52.0828125 43.8453125 52.0828125 43.6875 53.1875 C42.69996556 57.22741361 40.92826103 60.07173897 38 63 C37.6936141 65.73434962 37.4886664 68.38279821 37.375 71.125 C37.33632812 71.87910156 37.29765625 72.63320312 37.2578125 73.41015625 C37.16348969 75.27303184 37.08065338 77.13648255 37 79 C33.7 78.34 30.4 77.68 27 77 C26.34 78.32 25.68 79.64 25 81 C26.32 81.66 27.64 82.32 29 83 C29 83.99 29 84.98 29 86 C15.98711925 81.56221474 6.61256528 67.43595436 0.74023438 55.58764648 C-7.87927231 36.76621357 -6.76294642 19.1726248 0 0 Z " fill="#E8132C" transform="translate(88,121)"/>
<path d="M0 0 C2.73530892 1.36765446 2.97576407 2.82741721 4.1640625 5.62109375 C4.56367188 6.55630859 4.96328125 7.49152344 5.375 8.45507812 C5.7875 9.43927734 6.2 10.42347656 6.625 11.4375 C7.04523438 12.41783203 7.46546875 13.39816406 7.8984375 14.40820312 C11 21.72406402 11 21.72406402 11 24 C17.75710231 22.9413873 24.39324562 21.77874156 31 20 C32.0625 21.8125 32.0625 21.8125 33 24 C32.505 25.485 32.505 25.485 32 27 C30.515 27.495 30.515 27.495 29 28 C28.67 28.66 28.34 29.32 28 30 C29.98 29.34 31.96 28.68 34 28 C35 29 35 29 35.0625 31.5625 C35.041875 32.366875 35.02125 33.17125 35 34 C32.75749122 35.06129426 30.50850911 36.09881233 28.25 37.125 C27.61578125 37.42792969 26.9815625 37.73085937 26.328125 38.04296875 C21.58547794 40.16727941 21.58547794 40.16727941 18.59375 39.3125 C16.60930074 37.67824767 16.33441548 36.50811607 16 34 C15.43716309 34.16008545 14.87432617 34.3201709 14.29443359 34.48510742 C-1.04453631 37.9273172 -17.84725808 34.7730344 -31.42578125 27.34375 C-33.38214452 25.6738022 -33.48896851 24.46497541 -34 22 C-35.9837767 20.71563266 -35.9837767 20.71563266 -38 20 C-36.25 16.125 -36.25 16.125 -34 15 C-30.56806991 15.94209846 -27.16577767 16.94741677 -23.7734375 18.0234375 C-18.79778688 17.99253284 -17.34352051 16.27819467 -13.89257812 12.90234375 C-13.20615234 12.19207031 -12.51972656 11.48179687 -11.8125 10.75 C-10.42452658 9.36843458 -9.03524611 7.98818079 -7.64453125 6.609375 C-7.03971924 5.99030273 -6.43490723 5.37123047 -5.81176758 4.73339844 C-3.97649698 2.97751362 -2.06040718 1.48165387 0 0 Z " fill="#DF152E" transform="translate(150,182)"/>
<path d="M0 0 C5.06673288 0.19798956 7.55440775 3.12340546 10.8125 6.625 C11.87311571 7.72577699 12.93561503 8.82474223 14 9.921875 C14.51304687 10.45361328 15.02609375 10.98535156 15.5546875 11.53320312 C18.53035963 14.55310822 21.7590111 17.27257251 25 20 C26.33390444 21.14516844 27.66726268 22.29097349 29 23.4375 C29.99 24.283125 30.98 25.12875 32 26 C31.41456733 29.54801715 30.13005338 31.26724691 27.6484375 33.828125 C26.96136719 34.54613281 26.27429688 35.26414063 25.56640625 36.00390625 C24.48166016 37.11572266 24.48166016 37.11572266 23.375 38.25 C21.9647481 39.71219488 20.55588507 41.17573059 19.1484375 42.640625 C18.45411621 43.36314453 17.75979492 44.08566406 17.04443359 44.83007812 C13.93054867 48.13509475 10.96155106 51.55878093 8 55 C6.54435402 56.66901428 5.0866025 58.33619953 3.625 60 C2.95726562 60.763125 2.28953125 61.52625 1.6015625 62.3125 C1.07304688 62.869375 0.54453125 63.42625 0 64 C-0.33 64 -0.66 64 -1 64 C-1.0231271 55.80309439 -1.04091696 47.60620232 -1.05181217 39.40927219 C-1.0570402 35.60348423 -1.06413638 31.79771852 -1.07543945 27.99194336 C-1.0862712 24.32207456 -1.09227744 20.65222722 -1.09487724 16.98234367 C-1.09673097 15.57925008 -1.1003506 14.17615771 -1.10573006 12.7730732 C-1.11294419 10.8143032 -1.11340809 8.8555118 -1.11352539 6.89672852 C-1.115746 5.77976089 -1.11796661 4.66279327 -1.12025452 3.51197815 C-1 1 -1 1 0 0 Z " fill="#FEFEFE" transform="translate(126,103)"/>
<path d="M0 0 C0.66 0 1.32 0 2 0 C2 0.66 2 1.32 2 2 C3.32 2 4.64 2 6 2 C6.07005606 28.75542056 6.12297152 55.5108274 6.15543652 82.26632118 C6.17091069 94.68913462 6.1920108 107.11189109 6.22631836 119.53466797 C6.25620378 130.36133912 6.275571 141.18796902 6.28226548 152.01468027 C6.28617917 157.74825863 6.29538848 163.48171898 6.31719017 169.21525955 C6.33754168 174.61110255 6.34383645 180.00677882 6.33932304 185.40265656 C6.34014884 187.38359101 6.34612237 189.364531 6.35761642 191.34543228 C6.37253954 194.04979866 6.36895421 196.75353534 6.36076355 199.45791626 C6.36950207 200.24197456 6.3782406 201.02603286 6.38724393 201.8338505 C6.34802902 206.62333516 5.67091802 209.99371365 3 214 C-0.51761122 216.87111035 -5.02755722 216.27824644 -9.35731506 216.25396729 C-10.6333349 216.25864726 -10.6333349 216.25864726 -11.93513292 216.26342177 C-14.79024014 216.27140945 -17.64513528 216.26507513 -20.50024414 216.25878906 C-22.54520289 216.26149856 -24.59016066 216.26505926 -26.63511658 216.26940918 C-32.19277941 216.27853975 -37.75036812 216.2749863 -43.30803227 216.26865101 C-49.11758327 216.26359518 -54.92712783 216.26828124 -60.73667908 216.27142334 C-70.49251447 216.27506391 -80.24831959 216.27026119 -90.00415039 216.26074219 C-101.29337076 216.24985443 -112.58251892 216.2533852 -123.87173754 216.264395 C-133.55501839 216.27346165 -143.23827746 216.27475629 -152.92156118 216.26951766 C-158.70915914 216.26639492 -164.49672313 216.265997 -170.28431892 216.27259064 C-175.72369721 216.27835453 -181.16298207 216.27438477 -186.60235023 216.26280212 C-188.60227554 216.26015054 -190.60220866 216.26092908 -192.60213089 216.26532745 C-195.32475074 216.27076462 -198.04706818 216.26397113 -200.76966858 216.25396729 C-201.96644394 216.26065945 -201.96644394 216.26065945 -203.18739659 216.26748681 C-206.99593296 216.24020389 -208.75229368 216.16513754 -212 214 C-144.68 214 -77.36 214 -8 214 C-8 213.67 -8 213.34 -8 213 C-5.69 213 -3.38 213 -1 213 C-0.855625 212.360625 -0.71125 211.72125 -0.5625 211.0625 C0 209 0 209 1 208 C1.10003178 205.36391248 1.13440344 202.7539575 1.12698364 200.11734009 C1.12854363 199.28147413 1.13010362 198.44560817 1.13171089 197.58441293 C1.13572455 194.76149865 1.13252981 191.93863741 1.12939453 189.11572266 C1.13074843 187.10076363 1.1325283 185.08580486 1.13470459 183.07084656 C1.13928086 177.58120386 1.13748842 172.09157986 1.1343255 166.60193682 C1.1318022 160.86844359 1.13413942 155.13495202 1.13571167 149.40145874 C1.13753375 139.76893831 1.13512637 130.13642552 1.13037109 120.50390625 C1.12493149 109.35620816 1.12668879 98.20852836 1.1321975 87.06083071 C1.13673122 77.50500253 1.13737781 67.94917987 1.13475883 58.39335096 C1.13319709 52.67949395 1.13299942 46.96564555 1.13629532 41.25178909 C1.13917767 35.87895919 1.13719157 30.50615292 1.13140106 25.13332558 C1.1300753 23.15758999 1.13046448 21.18185243 1.13266373 19.20611763 C1.13538247 16.51626034 1.13198509 13.82647957 1.12698364 11.1366272 C1.12921436 10.34840344 1.13144509 9.56017968 1.13374341 8.74807036 C1.12220063 5.56352921 1.01471197 3.04413591 0 0 Z " fill="#D86876" transform="translate(223,13)"/>
<path d="M0 0 C2.5625 -0.25 2.5625 -0.25 5 0 C6 1 6 1 6.12025452 2.75270081 C6.11803391 3.51437057 6.11581329 4.27604034 6.11352539 5.06079102 C6.11344986 5.92160782 6.11337433 6.78242462 6.11329651 7.66932678 C6.10813522 8.60473801 6.10297394 9.54014923 6.09765625 10.50390625 C6.0962413 11.45692123 6.09482635 12.40993622 6.09336853 13.39183044 C6.08775152 16.44875165 6.07519616 19.50560077 6.0625 22.5625 C6.05748719 24.62955624 6.05292391 26.69661362 6.04882812 28.76367188 C6.03777656 33.84247588 6.02050055 38.9212257 6 44 C3.74963714 43.69012383 1.49972106 43.37700182 -0.75 43.0625 C-2.00296875 42.88847656 -3.2559375 42.71445313 -4.546875 42.53515625 C-7.09982593 42.13950662 -9.5186291 41.69553578 -12 41 C-12.495 38.525 -12.495 38.525 -13 36 C-14.32 35.67 -15.64 35.34 -17 35 C-17.39832031 35.79664063 -17.79664063 36.59328125 -18.20703125 37.4140625 C-19.8046875 40.609375 -21.40234375 43.8046875 -23 47 C-23.61875 48.62421875 -23.61875 48.62421875 -24.25 50.28125 C-26 53 -26 53 -29.35546875 54.2421875 C-30.62003906 54.45101562 -31.88460937 54.65984375 -33.1875 54.875 C-35.09595703 55.21144531 -35.09595703 55.21144531 -37.04296875 55.5546875 C-38.01878906 55.70164063 -38.99460938 55.84859375 -40 56 C-40.33 52.7 -40.66 49.4 -41 46 C-40.34773438 45.731875 -39.69546875 45.46375 -39.0234375 45.1875 C-37.71246094 44.5996875 -37.71246094 44.5996875 -36.375 44 C-35.51648438 43.62875 -34.65796875 43.2575 -33.7734375 42.875 C-29.87681318 40.24066243 -27.66735925 36.82217299 -25 33 C-24.06340386 31.73340811 -23.12210112 30.470281 -22.17578125 29.2109375 C-21.70962402 28.58598389 -21.2434668 27.96103027 -20.76318359 27.31713867 C-15.75727372 20.61535256 -10.68205169 13.97841145 -5.4777832 7.42919922 C-3.55069729 5.00013588 -1.72144357 2.58216536 0 0 Z " fill="#ED5A6B" transform="translate(167,38)"/>
<path d="M0 0 C10.23 0 20.46 0 31 0 C32.3918666 15.69013263 32.3918666 15.69013263 28.7265625 20.58984375 C26.04163032 23.63057687 23.00858542 26.28374677 20 29 C18.26313226 30.95247099 16.6344598 32.95916628 15 35 C9.653063 33.21768767 7.57520873 27.77287045 5 23 C1.34624856 14.77222557 0 9.21080687 0 0 Z " fill="#0A0102" transform="translate(94,151)"/>
<path d="M0 0 C6.10701135 6.10701135 5.40214214 17.69240877 5.5 25.75 C5.4587353 40.62936335 1.79894731 52.27876627 -6 65 C-6.76376953 66.31291016 -6.76376953 66.31291016 -7.54296875 67.65234375 C-12.13518318 75.05159543 -20.53962913 81.55930305 -28 86 C-28.66 86 -29.32 86 -30 86 C-30.33 86.99 -30.66 87.98 -31 89 C-33.97 89.495 -33.97 89.495 -37 90 C-36.0022242 87.00667261 -35.2477975 86.05233685 -33 84 C-33.66 83.01 -34.32 82.02 -35 81 C-35.71285156 81.2165625 -36.42570312 81.433125 -37.16015625 81.65625 C-42.61820717 83.24297813 -47.31558966 84.37896069 -53 84 C-53 83.67 -53 83.34 -53 83 C-51.80375 82.814375 -50.6075 82.62875 -49.375 82.4375 C-34.67753804 79.06885095 -22.40816063 69.93374272 -14 57.5625 C-8.36738759 47.9870589 -5.80672224 37.84301553 -5.875 26.8125 C-5.87693359 26.06234619 -5.87886719 25.31219238 -5.88085938 24.53930664 C-5.92405005 18.97190883 -6.2981603 13.52698767 -7 8 C-5 9 -5 9 -3.9140625 11.3203125 C-2.62936117 16.49205888 -2.53197592 21.56398153 -2.375 26.875 C-2.31699219 28.47988281 -2.31699219 28.47988281 -2.2578125 30.1171875 C-2.16397548 32.74462408 -2.07828443 35.37206171 -2 38 C-0.68 38.33 0.64 38.66 2 39 C2.05848483 34.66672416 2.09375916 30.33355115 2.125 26 C2.14175781 24.77925781 2.15851563 23.55851562 2.17578125 22.30078125 C2.21099426 15.78637478 1.83508766 10.24218794 0 4 C0 2.68 0 1.36 0 0 Z " fill="#DA152E" transform="translate(215,122)"/>
<path d="M0 0 C3.57940736 -0.46802564 4.88913048 -0.07211618 7.97265625 1.93359375 C8.99230469 2.75988281 10.01195313 3.58617188 11.0625 4.4375 C15.50965747 8.44501185 15.50965747 8.44501185 21 10 C23.60249976 8.5864443 23.60249976 8.5864443 26.125 6.5625 C30.82387476 3 30.82387476 3 33 3 C33.66 6.96 34.32 10.92 35 15 C33.35 15.66 31.7 16.32 30 17 C25.00521598 20.28604212 21.10328745 24.91869647 18 30 C17.49308741 33.33874912 17.49308741 33.33874912 18 36 C17 37 17 37 13.09765625 37.1875 C7.72427135 37.12787853 2.67327412 36.13704266 -2.5625 35 C-3.93245117 34.71382812 -3.93245117 34.71382812 -5.33007812 34.421875 C-7.55520087 33.95588071 -9.77826276 33.48183025 -12 33 C-12.04254356 31.00045254 -12.04080783 28.99958364 -12 27 C-11.67 26.67 -11.34 26.34 -11 26 C-5.30575407 26.21341297 0.40388411 26.94127537 6 28 C6.99 26.02 7.98 24.04 9 22 C9.66 22 10.32 22 11 22 C11.66 20.02 12.32 18.04 13 16 C8.38 12.7 3.76 9.4 -1 6 C-0.67 4.02 -0.34 2.04 0 0 Z " fill="#D72037" transform="translate(86,85)"/>
<path d="M0 0 C3.35575563 0.56708762 6.10647051 1.3690484 9.125 2.9375 C9.78757813 3.27652344 10.45015625 3.61554688 11.1328125 3.96484375 C12.80502542 4.8919074 14.40912004 5.93941336 16 7 C14.5158627 10.48654476 12.53785948 12.64191072 9.8125 15.25 C6.29398007 18.68983099 2.97818486 22.20615096 -0.2265625 25.9375 C-2.27102383 28.31519952 -4.35192764 30.65830471 -6.4375 33 C-7.11683594 33.763125 -7.79617187 34.52625 -8.49609375 35.3125 C-8.99238281 35.869375 -9.48867187 36.42625 -10 37 C-14.36629743 35.60154175 -16.73963895 33.55565223 -19.875 30.25 C-22.86002489 27.16219731 -25.8283614 24.19139932 -29.125 21.4375 C-30.548125 20.2309375 -30.548125 20.2309375 -32 19 C-32 18.67 -32 18.34 -32 18 C-30.68644531 17.98582031 -29.37289062 17.97164062 -28.01953125 17.95703125 C-26.28381949 17.91012012 -24.54814348 17.86187279 -22.8125 17.8125 C-21.94818359 17.80669922 -21.08386719 17.80089844 -20.19335938 17.79492188 C-15.89851638 17.64682384 -13.65422064 17.49605741 -10.15625 14.84375 C-7.88621107 11.84993055 -5.73177364 8.84053223 -3.6875 5.6875 C-2.99011719 4.61886719 -2.29273438 3.55023438 -1.57421875 2.44921875 C-1.05472656 1.64097656 -0.53523438 0.83273438 0 0 Z " fill="#0C0303" transform="translate(170,93)"/>
<path d="M0 0 C0.48799702 0.48755925 0.97599403 0.9751185 1.47877884 1.47745228 C5.02030388 3.61615433 8.32445258 3.4049649 12.33953857 3.36076355 C13.61260813 3.36460846 13.61260813 3.36460846 14.91139627 3.36853105 C17.75980803 3.37347873 20.60769162 3.35695979 23.45605469 3.34057617 C25.4960275 3.33973011 27.53600123 3.34020463 29.57597351 3.34190369 C35.11902802 3.34276589 40.66188853 3.32510364 46.20489788 3.30418181 C51.99582122 3.28545253 57.7867488 3.28366753 63.57769775 3.28010559 C74.5459326 3.27077411 85.51407794 3.24614535 96.48227334 3.21605712 C108.96821027 3.18254747 121.45415144 3.16603574 133.94012213 3.15097082 C159.62679774 3.1195968 185.31339386 3.06681482 211 3 C211 3.66 211 4.32 211 5 C209.02 5.33 207.04 5.66 205 6 C205 6.33 205 6.66 205 7 C178.86193946 7.02334197 152.72388047 7.04098557 126.58581161 7.05181217 C114.44994509 7.05697236 102.31408503 7.06400981 90.17822266 7.07543945 C79.60280772 7.08539472 69.02739746 7.09185545 58.45197797 7.09408849 C52.85041299 7.09539416 47.24886141 7.09847098 41.64730072 7.10573006 C36.37790243 7.11250354 31.1085231 7.11461423 25.83912086 7.11310768 C23.9025061 7.11338341 21.96589072 7.11538067 20.02927971 7.11920547 C17.39008144 7.1241634 14.75095523 7.12299046 12.11175537 7.12025452 C10.95611151 7.12462378 10.95611151 7.12462378 9.77712131 7.12908131 C6.37943104 7.11952798 3.24708028 7.0710777 0 6 C-0.38218767 4.34385343 -0.71395102 2.67542976 -1 1 C-0.67 0.67 -0.34 0.34 0 0 Z " fill="#C55660" transform="translate(11,221)"/>
<path d="M0 0 C0.99 0 1.98 0 3 0 C3.33 68.64 3.66 137.28 4 208 C0.14430526 204.14430526 -0.11414168 202.76444621 -0.12908131 197.42869508 C-0.12616847 196.64465826 -0.12325563 195.86062144 -0.12025452 195.05282593 C-0.12153615 193.80682096 -0.12153615 193.80682096 -0.12284368 192.53564417 C-0.12449822 189.7364691 -0.11897753 186.9373532 -0.11352539 184.13818359 C-0.11324349 182.13791404 -0.11340131 180.13764438 -0.1139679 178.13737488 C-0.11425575 172.69344305 -0.108361 167.24953309 -0.10139394 161.80560637 C-0.09515836 156.12143278 -0.09455644 150.43725875 -0.09336853 144.75308228 C-0.09025582 133.98314837 -0.08204324 123.21322457 -0.07201904 112.44329512 C-0.06085604 100.1847167 -0.05534698 87.92613781 -0.05032361 75.66755557 C-0.03986058 50.44503144 -0.02226229 25.22251628 0 0 Z " fill="#E5717F" transform="translate(7,19)"/>
<path d="M0 0 C3.3 0.33 6.6 0.66 10 1 C8.09201624 10.66711773 8.09201624 10.66711773 7.46875 12.921875 C4.80012902 24.75276134 5.88980507 37.9397767 6 50 C4.109375 50.58203125 4.109375 50.58203125 2 51 C0.25 49.6875 0.25 49.6875 -1 48 C-1 47.34 -1 46.68 -1 46 C-1.66 46 -2.32 46 -3 46 C-6.83265167 29.54907975 -5.57726393 15.8967777 0 0 Z " fill="#E4162F" transform="translate(88,121)"/>
<path d="M0 0 C0 0.99 0 1.98 0 3 C-0.66 3.66 -1.32 4.32 -2 5 C-2.16681109 8.08347826 -2.16681109 8.08347826 -2 11 C0.64 11.33 3.28 11.66 6 12 C6 22.89 6 33.78 6 45 C0.38461538 39.38461538 0.38461538 39.38461538 -1.71875 36.625 C-2.17636719 36.03203125 -2.63398437 35.4390625 -3.10546875 34.828125 C-4.03515625 33.609375 -4.96484375 32.390625 -5.89453125 31.171875 C-8.07901857 28.34127172 -10.16806737 25.84137462 -12.78125 23.375 C-15.23967909 20.7434421 -16.08884376 19.5981724 -16 16 C-12.03708718 9.36974201 -6.53978169 4.03518445 0 0 Z " fill="#0A0404" transform="translate(119,99)"/>
<path d="M0 0 C2.20805524 -0.0544452 4.41650554 -0.09299283 6.625 -0.125 C7.85476562 -0.14820312 9.08453125 -0.17140625 10.3515625 -0.1953125 C13.94316041 -0.0030428 16.66661175 0.69741444 20 2 C19.35956153 5.96689502 17.39583467 8.75614364 15.1875 12.0625 C14.50042969 13.10535156 13.81335938 14.14820312 13.10546875 15.22265625 C10.67931674 18.42301633 8.80310092 20.7318416 4.70996094 21.34057617 C3.89301758 21.32486572 3.07607422 21.30915527 2.234375 21.29296875 C1.34492188 21.28330078 0.45546875 21.27363281 -0.4609375 21.26367188 C-1.38132813 21.23853516 -2.30171875 21.21339844 -3.25 21.1875 C-4.18585938 21.17396484 -5.12171875 21.16042969 -6.0859375 21.14648438 C-8.39087221 21.11120476 -10.69551005 21.05739966 -13 21 C-13.99 18.03 -14.98 15.06 -16 12 C-14.68 12 -13.36 12 -12 12 C-12 12.99 -12 13.98 -12 15 C-10.576875 14.2575 -10.576875 14.2575 -9.125 13.5 C-6 12 -6 12 -4 12 C-4 11.34 -4 10.68 -4 10 C-3.34 10 -2.68 10 -2 10 C-2 8.35 -2 6.7 -2 5 C-1.34 5 -0.68 5 0 5 C0 3.35 0 1.7 0 0 Z " fill="#EB596A" transform="translate(150,90)"/>
<path d="M0 0 C2.72655658 1.36327829 2.97195973 2.80401503 4.1640625 5.5859375 C4.56367188 6.51664063 4.96328125 7.44734375 5.375 8.40625 C5.7875 9.3859375 6.2 10.365625 6.625 11.375 C7.04523438 12.34695312 7.46546875 13.31890625 7.8984375 14.3203125 C11 21.61099838 11 21.61099838 11 25 C-11.73177276 25.5133901 -11.73177276 25.5133901 -20 21 C-19.42502793 17.54026238 -18.33094848 16.0013241 -15.76171875 13.65234375 C-14.77848633 12.74452148 -14.77848633 12.74452148 -13.77539062 11.81835938 C-13.08638672 11.19767578 -12.39738281 10.57699219 -11.6875 9.9375 C-11.01009766 9.31294922 -10.33269531 8.68839844 -9.63476562 8.04492188 C-6.5228369 5.19460202 -3.40653545 2.49637448 0 0 Z " fill="#070607" transform="translate(150,182)"/>
<path d="M0 0 C1.00849558 2.01699115 2.01615982 4.03332963 3 6.0625 C4.07403709 8.23163505 4.07403709 8.23163505 6 11 C6.8125 14 6.8125 14 7 17 C5.5625 18.875 5.5625 18.875 4 20 C4.66 20 5.32 20 6 20 C7.625 21.5 7.625 21.5 9 23 C9 22.34 9 21.68 9 21 C11.97 21.33 14.94 21.66 18 22 C18 21.01 18 20.02 18 19 C18.66 19 19.32 19 20 19 C19.67 17.68 19.34 16.36 19 15 C25.75 13 25.75 13 28 13 C28 17.62 28 22.24 28 27 C24.7 26.34 21.4 25.68 18 25 C17.34 26.32 16.68 27.64 16 29 C17.32 29.66 18.64 30.32 20 31 C20 31.99 20 32.98 20 34 C10.42050858 30.73310417 2.33582507 21.36314552 -3 13 C-4.06690313 10.29209824 -4.18223899 8.97657022 -4 6 C-2.625 4.25 -2.625 4.25 -1 3 C-0.67 2.01 -0.34 1.02 0 0 Z " fill="#D5172F" transform="translate(97,173)"/>
<path d="M0 0 C0 0.66 0 1.32 0 2 C0.99 2 1.98 2 3 2 C3.13277344 2.84304687 3.26554688 3.68609375 3.40234375 4.5546875 C3.57894531 5.65039062 3.75554687 6.74609375 3.9375 7.875 C4.11152344 8.96554688 4.28554687 10.05609375 4.46484375 11.1796875 C4.85551159 13.93821546 4.85551159 13.93821546 6 16 C6.08527628 18.03232634 6.10716135 20.06747006 6.09765625 22.1015625 C6.09443359 23.31328125 6.09121094 24.525 6.08789062 25.7734375 C6.07951172 27.04445312 6.07113281 28.31546875 6.0625 29.625 C6.05798828 30.90375 6.05347656 32.1825 6.04882812 33.5 C6.03701203 36.66671292 6.02053815 39.83333356 6 43 C5.01 43.495 5.01 43.495 4 44 C4 43.34 4 42.68 4 42 C2.515 42.495 2.515 42.495 1 43 C-0.65395692 41.34604308 -0.18691013 39.35791032 -0.24609375 37.08203125 C-0.27896484 36.07462891 -0.31183594 35.06722656 -0.34570312 34.02929688 C-0.40634103 31.90438973 -0.46369522 29.77938604 -0.51757812 27.65429688 C-0.75467395 20.13732031 -0.75467395 20.13732031 -3 13 C-3.53625 12.525625 -4.0725 12.05125 -4.625 11.5625 C-6 10 -6 10 -6.375 6.5 C-6 3 -6 3 -4.6875 1.0625 C-3 0 -3 0 0 0 Z " fill="#E7132D" transform="translate(212,118)"/>
<path d="M0 0 C0.66 0 1.32 0 2 0 C0.54900018 4.59483277 0.54900018 4.59483277 -1.55579281 6.14818954 C-5.1244197 7.39186222 -8.62371516 7.27490348 -12.35731506 7.25396729 C-13.6333349 7.25864726 -13.6333349 7.25864726 -14.93513292 7.26342177 C-17.79024014 7.27140945 -20.64513528 7.26507513 -23.50024414 7.25878906 C-25.54520289 7.26149856 -27.59016066 7.26505926 -29.63511658 7.26940918 C-35.19277941 7.27853975 -40.75036812 7.2749863 -46.30803227 7.26865101 C-52.11758327 7.26359518 -57.92712783 7.26828124 -63.73667908 7.27142334 C-73.49251447 7.27506391 -83.24831959 7.27026119 -93.00415039 7.26074219 C-104.29337076 7.24985443 -115.58251892 7.2533852 -126.87173754 7.264395 C-136.55501839 7.27346165 -146.23827746 7.27475629 -155.92156118 7.26951766 C-161.70915914 7.26639492 -167.49672313 7.265997 -173.28431892 7.27259064 C-178.72369721 7.27835453 -184.16298207 7.27438477 -189.60235023 7.26280212 C-191.60227554 7.26015054 -193.60220866 7.26092908 -195.60213089 7.26532745 C-198.32475074 7.27076462 -201.04706818 7.26397113 -203.76966858 7.25396729 C-204.56751882 7.25842873 -205.36536906 7.26289017 -206.18739659 7.26748681 C-209.99593296 7.24020389 -211.75229368 7.16513754 -215 5 C-147.68 5 -80.36 5 -11 5 C-11 4.67 -11 4.34 -11 4 C-8.69 4 -6.38 4 -4 4 C-3.67 3.34 -3.34 2.68 -3 2 C-2.01 2.33 -1.02 2.66 0 3 C0 2.01 0 1.02 0 0 Z " fill="#DF8E97" transform="translate(226,222)"/>
<path d="M0 0 C2.97 0.495 2.97 0.495 6 1 C4.63389732 4.03726958 3.06926193 6.20915026 0.76953125 8.609375 C-0.18856445 9.61871094 -0.18856445 9.61871094 -1.16601562 10.6484375 C-1.83310547 11.34195313 -2.50019531 12.03546875 -3.1875 12.75 C-7.6769869 17.449443 -12.08415241 22.18722154 -16.34155273 27.09863281 C-18.82409448 29.94480315 -21.37729868 32.72379276 -23.9375 35.5 C-24.43056641 36.03625 -24.92363281 36.5725 -25.43164062 37.125 C-26.62023739 38.41745474 -27.80998823 39.70884799 -29 41 C-29 38.37886292 -28.68707555 36.49064888 -28 34 C-26.68 34 -25.36 34 -24 34 C-22.79371992 31.66785852 -21.8345262 29.50357861 -21 27 C-20.34 27 -19.68 27 -19 27 C-19 26.01 -19 25.02 -19 24 C-19.66 23.67 -20.32 23.34 -21 23 C-20.67 22.34 -20.34 21.68 -20 21 C-20.66 21 -21.32 21 -22 21 C-22 20.34 -22 19.68 -22 19 C-25.52381687 21.54604597 -25.52381687 21.54604597 -28 25 C-28.66 24.67 -29.32 24.34 -30 24 C-24.73428586 17.9385027 -19.38337853 11.95711729 -14 6 C-13.34 7.32 -12.68 8.64 -12 10 C-12.804375 10.2475 -13.60875 10.495 -14.4375 10.75 C-17.171081 11.72238859 -17.171081 11.72238859 -17.8125 14.125 C-17.874375 14.74375 -17.93625 15.3625 -18 16 C-16.68 16.33 -15.36 16.66 -14 17 C-14 16.34 -14 15.68 -14 15 C-12.68 15.33 -11.36 15.66 -10 16 C-9.67 15.01 -9.34 14.02 -9 13 C-8.01 13.33 -7.02 13.66 -6 14 C-6.33 12.68 -6.66 11.36 -7 10 C-4 8 -4 8 -1 8 C-1.33 7.01 -1.66 6.02 -2 5 C-1.34 5 -0.68 5 0 5 C0.33 4.34 0.66 3.68 1 3 C0.34 2.67 -0.32 2.34 -1 2 C-0.67 1.34 -0.34 0.68 0 0 Z " fill="#DC1E36" transform="translate(160,138)"/>
<path d="M0 0 C0.99 0.33 1.98 0.66 3 1 C2.67 1.66 2.34 2.32 2 3 C18.17 2.67 34.34 2.34 51 2 C48.45704046 4.54295954 46.84387996 4.23893345 43.37634885 4.25816262 C42.58453014 4.25233693 41.79271142 4.24651125 40.97689819 4.24050903 C40.13806111 4.24221788 39.29922403 4.24392673 38.43496764 4.24568737 C35.60808969 4.24899662 32.78144613 4.23795507 29.95458984 4.22705078 C27.93461615 4.22648698 25.91464204 4.22680262 23.89466858 4.22793579 C18.39699284 4.22851151 12.89940372 4.21672188 7.40174818 4.20278788 C1.66152347 4.19031688 -4.07870304 4.18911289 -9.81893921 4.18673706 C-20.69513539 4.18051159 -31.57129154 4.16408637 -42.44747007 4.14403808 C-54.82696094 4.12171223 -67.20645369 4.110694 -79.58595967 4.10064721 C-105.05732867 4.07972104 -130.5286621 4.04452438 -156 4 C-156 3.67 -156 3.34 -156 3 C-155.20816881 2.99668985 -154.41633762 2.99337971 -153.60051155 2.98996925 C-134.35571179 2.90883721 -115.11099292 2.81677722 -95.8663044 2.71247292 C-86.55981219 2.66229768 -77.25332901 2.61585543 -67.94677734 2.578125 C-59.83755386 2.54523936 -51.72839944 2.50542734 -43.61925209 2.45720994 C-39.32338169 2.43191071 -35.02755731 2.41013967 -30.73163223 2.39665604 C-26.69168602 2.38386658 -22.65189736 2.36184632 -18.61203766 2.33261681 C-17.12611718 2.32351653 -15.64017131 2.31784512 -14.1542244 2.31578636 C-12.13176225 2.31248121 -10.1093347 2.29585943 -8.08694458 2.2784729 C-6.38623652 2.27017676 -6.38623652 2.27017676 -4.65117073 2.26171303 C-1.84483785 2.26765205 -1.84483785 2.26765205 0 0 Z " fill="#280106" transform="translate(171,221)"/>
<path d="M0 0 C6.57980641 0.05295619 13.1120679 1.29904048 19.5625 2.5 C20.26511963 2.63051758 20.96773926 2.76103516 21.69165039 2.89550781 C26.73774473 3.86887237 26.73774473 3.86887237 29 5 C29.042721 6.66611905 29.04063832 8.33382885 29 10 C28 11 28 11 24.09765625 11.1875 C18.72427135 11.12787853 13.67327412 10.13704266 8.4375 9 C7.52419922 8.80921875 6.61089844 8.6184375 5.66992188 8.421875 C3.44479913 7.95588071 1.22173724 7.48183025 -1 7 C-1.04254356 5.00045254 -1.04080783 2.99958364 -1 1 C-0.67 0.67 -0.34 0.34 0 0 Z " fill="#FEFBFB" transform="translate(75,111)"/>
<path d="M0 0 C1.2065625 0.0309375 1.2065625 0.0309375 2.4375 0.0625 C4.99504854 5.91554587 4.69854631 11.61582169 4.625 17.875 C4.62435547 18.93654297 4.62371094 19.99808594 4.62304688 21.09179688 C4.5779591 28.9220409 4.5779591 28.9220409 3.4375 30.0625 C1.77132885 30.10313832 0.10361905 30.105221 -1.5625 30.0625 C-4.6020607 23.98337861 -3.66446125 15.66936872 -3.6875 9 C-3.69209229 8.23743896 -3.69668457 7.47487793 -3.70141602 6.68920898 C-3.68278421 0.08982401 -3.68278421 0.08982401 0 0 Z " fill="#F7F6F6" transform="translate(121.5625,67.9375)"/>
<path d="M0 0 C2.475 0.99 2.475 0.99 5 2 C4.48413739 8.38270687 2.31155021 13.57270018 -0.3125 19.375 C-0.70373047 20.28894531 -1.09496094 21.20289062 -1.49804688 22.14453125 C-1.88669922 23.01207031 -2.27535156 23.87960938 -2.67578125 24.7734375 C-3.02552002 25.56153809 -3.37525879 26.34963867 -3.7355957 27.16162109 C-5 29 -5 29 -7.02026367 29.88916016 C-7.67357666 29.9257373 -8.32688965 29.96231445 -9 30 C-9.66 29.34 -10.32 28.68 -11 28 C-10.76414754 21.52477799 -8.77244767 16.44779021 -6.0625 10.625 C-5.70220703 9.81933594 -5.34191406 9.01367188 -4.97070312 8.18359375 C-2.29082661 2.29082661 -2.29082661 2.29082661 0 0 Z " fill="#FEFBFC" transform="translate(150,72)"/>
<path d="M0 0 C3.43869925 -0.41490704 4.84133449 -0.09848204 7.83203125 1.7578125 C9.30736328 2.92957031 9.30736328 2.92957031 10.8125 4.125 C11.8658546 4.94925813 12.91924013 5.77347674 13.97265625 6.59765625 C14.97167969 7.39042969 15.97070312 8.18320313 17 9 C18.57898357 10.19327766 20.16158473 11.3818063 21.75 12.5625 C22.83333333 13.375 23.91666667 14.1875 25 15 C24.67 16.65 24.34 18.3 24 20 C22.3203125 20.71875 22.3203125 20.71875 20 21 C17.5546875 19.59375 17.5546875 19.59375 14.875 17.5 C13.91722656 16.7678125 12.95945312 16.035625 11.97265625 15.28125 C10.99167969 14.5284375 10.01070312 13.775625 9 13 C7.11176971 11.65592107 5.21647635 10.32167918 3.3125 9 C2.06919922 8.13375 2.06919922 8.13375 0.80078125 7.25 C0.20652344 6.8375 -0.38773437 6.425 -1 6 C-0.67 4.02 -0.34 2.04 0 0 Z " fill="#FCFCFC" transform="translate(86,85)"/>
<path d="M0 0 C0.33 0 0.66 0 1 0 C1.06999275 26.69411965 1.12294035 53.38822561 1.15543652 80.08241844 C1.17092418 92.47620074 1.19204989 104.86992611 1.22631836 117.26367188 C1.25616267 128.06247069 1.27556117 138.86122829 1.28226548 149.6600672 C1.28618618 155.3812219 1.29543961 161.10225869 1.31719017 166.8233757 C1.33747692 172.20279086 1.3438497 177.58203895 1.33932304 182.96148872 C1.34015176 184.94087823 1.3461637 186.92027304 1.35761642 188.89962959 C1.37243848 191.5922611 1.36899159 194.28425335 1.36076355 196.97689819 C1.36950207 197.76871691 1.3782406 198.56053563 1.38724393 199.37634885 C1.36914349 201.55234337 1.36914349 201.55234337 1 205 C-0.485 205.99 -0.485 205.99 -2 207 C-1.83826325 206.50887096 -1.67652651 206.01774193 -1.50988865 205.51173019 C-0.78768274 201.95411741 -0.84632491 198.42709925 -0.84178162 194.81231689 C-0.83684364 193.97993807 -0.83190566 193.14755924 -0.82681805 192.28995681 C-0.81144332 189.49701749 -0.80308247 186.70410116 -0.79467773 183.91113281 C-0.78509919 181.91056618 -0.77508913 179.91000157 -0.76467896 177.90943909 C-0.73762124 172.47391183 -0.71661634 167.03837589 -0.69667697 161.60281849 C-0.67482279 155.92397792 -0.64743131 150.24516416 -0.62062073 144.56634521 C-0.57068618 133.81066382 -0.52575016 123.05496755 -0.48259836 112.29925704 C-0.43323252 100.05512317 -0.37831196 87.81101621 -0.32291877 75.56690836 C-0.20908701 50.377964 -0.10225055 25.18899384 0 0 Z " fill="#2F060A" transform="translate(224,16)"/>
<path d="M0 0 C-0.54604964 4.58681701 -1.45252376 8.11614278 -4 12 C-7.35546875 13.2421875 -7.35546875 13.2421875 -11.1875 13.875 C-13.09595703 14.21144531 -13.09595703 14.21144531 -15.04296875 14.5546875 C-16.50669922 14.77511719 -16.50669922 14.77511719 -18 15 C-18.33 11.7 -18.66 8.4 -19 5 C-12.50345458 1.85323581 -7.28446232 0 0 0 Z " fill="#DD1831" transform="translate(145,79)"/>
<path d="M0 0 C0.66 0 1.32 0 2 0 C2 3.96 2 7.92 2 12 C1.34 12 0.68 12 0 12 C0 12.66 0 13.32 0 14 C-1.65 14.66 -3.3 15.32 -5 16 C-5 17.32 -5 18.64 -5 20 C-5.99 20 -6.98 20 -8 20 C-8.33 20.66 -8.66 21.32 -9 22 C-10.32 21.67 -11.64 21.34 -13 21 C-13 21.66 -13 22.32 -13 23 C-14.65 23 -16.3 23 -18 23 C-16.375 17.25 -16.375 17.25 -13 15 C-12.67 14.01 -12.34 13.02 -12 12 C-9.4375 10.8125 -9.4375 10.8125 -7 10 C-7 9.34 -7 8.68 -7 8 C-6.34 8 -5.68 8 -5 8 C-5 7.34 -5 6.68 -5 6 C-4.01 5.34 -3.02 4.68 -2 4 C-0.80767387 1.94996045 -0.80767387 1.94996045 0 0 Z " fill="#E7132B" transform="translate(159,132)"/>
<path d="M0 0 C0.33 0 0.66 0 1 0 C1 14.19 1 28.38 1 43 C2.32 43.66 3.64 44.32 5 45 C1.50765756 45.09978121 -1.59437148 44.77842938 -5 44 C-5 45.65 -5 47.3 -5 49 C-9.62 49 -14.24 49 -19 49 C-18.34 48.34 -17.68 47.68 -17 47 C-16.95919217 45.00041636 -16.95745644 42.99954746 -17 41 C-15.37070843 39.37070843 -13.55305904 39.82924558 -11.3125 39.8125 C-10.46300781 39.79832031 -9.61351562 39.78414062 -8.73828125 39.76953125 C-6 40 -6 40 0 42 C0 28.14 0 14.28 0 0 Z " fill="#C61B30" transform="translate(173,40)"/>
<path d="M0 0 C0 5.28 0 10.56 0 16 C0.66 16 1.32 16 2 16 C2 19.63 2 23.26 2 27 C0.68 27.33 -0.64 27.66 -2 28 C-5.15131444 25.54897766 -5.9290506 23.49720887 -6.4921875 19.55078125 C-7.7594429 6.85116839 -7.7594429 6.85116839 -4.6875 2.5 C-2 0 -2 0 0 0 Z " fill="#E9122C" transform="translate(92,144)"/>
<path d="M0 0 C2.04292991 3.06439486 3.07775131 5.79109486 4.3125 9.25 C5.80826435 13.26400642 7.23246451 16.6838822 9.875 20.0625 C10.57625 21.031875 11.2775 22.00125 12 23 C11.6328125 25.18359375 11.6328125 25.18359375 11 27 C10.34 27 9.68 27 9 27 C8.71125 26.195625 8.4225 25.39125 8.125 24.5625 C7.26737432 21.8673532 7.26737432 21.8673532 5 21 C4.27840576 19.35636866 3.60648579 17.68949614 3 16 C1.3372974 18.67478244 0.00016187 20.9995144 -1 24 C-2.19984797 21.73495035 -3.38494769 19.46410112 -4.5625 17.1875 C-4.90474609 16.54490234 -5.24699219 15.90230469 -5.59960938 15.24023438 C-6.4765023 13.53073605 -7.24515617 11.76678706 -8 10 C-7.67 9.01 -7.34 8.02 -7 7 C-6.67 8.32 -6.34 9.64 -6 11 C-4.02 11 -2.04 11 0 11 C-0.33 10.34 -0.66 9.68 -1 9 C-1.23333333 2.46666667 -1.23333333 2.46666667 0 0 Z " fill="#D8162F" transform="translate(94,160)"/>
<path d="M0 0 C0 1.65 0 3.3 0 5 C-2.24250878 6.06129426 -4.49149089 7.09881233 -6.75 8.125 C-7.38421875 8.42792969 -8.0184375 8.73085937 -8.671875 9.04296875 C-13.37430731 11.14926656 -13.37430731 11.14926656 -16.390625 10.4296875 C-18.33221623 8.70487587 -18.66134734 7.53989494 -19 5 C-17.77023438 4.60167969 -17.77023438 4.60167969 -16.515625 4.1953125 C-15.43796875 3.84210938 -14.3603125 3.48890625 -13.25 3.125 C-12.18265625 2.77695313 -11.1153125 2.42890625 -10.015625 2.0703125 C-7.07508307 1.11460469 -7.07508307 1.11460469 -4.796875 -0.1953125 C-3 -1 -3 -1 0 0 Z " fill="#FDFCFC" transform="translate(185,211)"/>
<path d="M0 0 C0.66 0 1.32 0 2 0 C2 0.66 2 1.32 2 2 C2.66 2 3.32 2 4 2 C4.33 3.98 4.66 5.96 5 8 C4.34 8 3.68 8 3 8 C2.67 8.99 2.34 9.98 2 11 C1.34 9.68 0.68 8.36 0 7 C-0.4125 7.495 -0.825 7.99 -1.25 8.5 C-3 10 -3 10 -7 10 C-7.33 10.99 -7.66 11.98 -8 13 C-9.63260714 14.37482707 -11.30225062 15.70647667 -13 17 C-13.515625 17.556875 -14.03125 18.11375 -14.5625 18.6875 C-16.30897078 20.28210376 -17.72126846 20.50138185 -20 21 C-16.19856198 15.63899766 -12.23643077 10.05728292 -7 6 C-6.01 6 -5.02 6 -4 6 C-3.566875 5.071875 -3.566875 5.071875 -3.125 4.125 C-2 2 -2 2 0 0 Z " fill="#E7132E" transform="translate(136,157)"/>
<path d="M0 0 C0.0825 0.61875 0.165 1.2375 0.25 1.875 C1.25440815 4.72082309 2.31462516 4.69360143 5 6 C6.93651341 7.34690458 8.85211972 8.72418361 10.75 10.125 C12.22726563 11.21167969 12.22726563 11.21167969 13.734375 12.3203125 C14.48203125 12.87460938 15.2296875 13.42890625 16 14 C15 16 14 18 13 20 C9.27037715 18.75679238 8.32521873 17.2044877 5.9375 14.125 C5.24527344 13.24070312 4.55304688 12.35640625 3.83984375 11.4453125 C0.68370775 7.25053302 -0.2333896 5.25126603 0 0 Z " fill="#18090A" transform="translate(84,87)"/>
<path d="M0 0 C0 3.94720688 -1.52509109 5.01555103 -4 8 C-4.5259375 9.11375 -4.5259375 9.11375 -5.0625 10.25 C-6 12 -6 12 -9 13 C-10.56747629 15.05888677 -10.56747629 15.05888677 -12 17.5 C-14.66666667 21.88888889 -14.66666667 21.88888889 -18 23 C-19.01187895 24.65948148 -20.0126546 26.32580562 -21 28 C-21.66 28 -22.32 28 -23 28 C-23 29.32 -23 30.64 -23 32 C-25.31 32.66 -27.62 33.32 -30 34 C-20.55046865 21.20578917 -20.55046865 21.20578917 -15.625 17.125 C-11.61808469 13.79751815 -8.33185405 9.98872789 -5 6 C-4.23236328 5.08734375 -4.23236328 5.08734375 -3.44921875 4.15625 C-2.29345995 2.77585076 -1.14571565 1.38874624 0 0 Z " fill="#BE1830" transform="translate(177,110)"/>
<path d="M0 0 C1.37478516 0.01740234 1.37478516 0.01740234 2.77734375 0.03515625 C3.69644531 0.04417969 4.61554688 0.05320312 5.5625 0.0625 C6.27277344 0.07410156 6.98304688 0.08570312 7.71484375 0.09765625 C8.04484375 2.07765625 8.37484375 4.05765625 8.71484375 6.09765625 C7.13703125 6.53078125 7.13703125 6.53078125 5.52734375 6.97265625 C2.48665664 7.86990818 -0.37227969 8.86189044 -3.28515625 10.09765625 C-3.31204841 8.61858733 -3.33150246 7.13938142 -3.34765625 5.66015625 C-3.35925781 4.83644531 -3.37085937 4.01273437 -3.3828125 3.1640625 C-3.24381204 0.22281267 -2.9444484 0.12583113 0 0 Z " fill="#E8132C" transform="translate(131.28515625,83.90234375)"/>
<path d="M0 0 C0.99 0.33 1.98 0.66 3 1 C3 3.31 3 5.62 3 8 C-7.56 8 -18.12 8 -29 8 C-28.67 7.34 -28.34 6.68 -28 6 C-18.76 6 -9.52 6 0 6 C0 4.02 0 2.04 0 0 Z " fill="#C55765" transform="translate(122,143)"/>
<path d="M0 0 C0.556875 0.309375 1.11375 0.61875 1.6875 0.9375 C4.12540433 2.05761821 6.36224186 2.56037364 9 3 C8.2575 3.70125 7.515 4.4025 6.75 5.125 C4.743384 7.22282582 3.28910331 8.93028495 1.75 11.3125 C1.1725 12.199375 0.595 13.08625 0 14 C-0.33 14 -0.66 14 -1 14 C-1.33 15.65 -1.66 17.3 -2 19 C-2.33 19 -2.66 19 -3 19 C-3 15.04 -3 11.08 -3 7 C-2.34 7 -1.68 7 -1 7 C-1 5.68 -1 4.36 -1 3 C-0.67 2.01 -0.34 1.02 0 0 Z " fill="#D36F71" transform="translate(9,6)"/>
<path d="M0 0 C0.66 0 1.32 0 2 0 C2 4.62 2 9.24 2 14 C-4.13636364 11.54545455 -4.13636364 11.54545455 -7 9 C-7 7 -7 7 -4.625 4.5 C-3.75875 3.675 -2.8925 2.85 -2 2 C-1.34 1.34 -0.68 0.68 0 0 Z " fill="#1F0103" transform="translate(123,186)"/>
<path d="M0 0 C0.33 0 0.66 0 1 0 C0.67 2.64 0.34 5.28 0 8 C0.99 7.67 1.98 7.34 3 7 C2.34 9.31 1.68 11.62 1 14 C0.67 13.34 0.34 12.68 0 12 C-0.99 12.495 -0.99 12.495 -2 13 C-4.3329866 13.04022391 -6.66706666 13.04320247 -9 13 C-6.39231583 8.17095524 -3.68069634 4.07860946 0 0 Z " fill="#DD5D6D" transform="translate(145,67)"/>
<path d="M0 0 C-0.99 0.33 -1.98 0.66 -3 1 C-3.33 2.65 -3.66 4.3 -4 6 C-4.99 6 -5.98 6 -7 6 C-6.34 6.33 -5.68 6.66 -5 7 C-5 7.66 -5 8.32 -5 9 C-6.65 9.33 -8.3 9.66 -10 10 C-11.5625 7.75 -11.5625 7.75 -13 5 C-12.58984375 2.828125 -12.58984375 2.828125 -12 1 C-3.96428571 -1.27678571 -3.96428571 -1.27678571 0 0 Z " fill="#F25769" transform="translate(141,92)"/>
<path d="M0 0 C2 1 2 1 3.10546875 3.44921875 C4.24466432 7.97117847 4.32984182 12.16836108 4.3125 16.8125 C4.32861328 17.66392578 4.34472656 18.51535156 4.36132812 19.39257812 C4.36592951 25.43419333 3.24411408 30.39863011 1 36 C0.01585683 32.52540001 0.26888338 30.54040721 1 27 C1.09440206 24.25956378 1.14195557 21.55173305 1.125 18.8125 C1.12306641 18.06234619 1.12113281 17.31219238 1.11914062 16.53930664 C1.07594995 10.97190883 0.7018397 5.52698767 0 0 Z " fill="#BD1A2E" transform="translate(208,130)"/>
<path d="M0 0 C1.125 1.8125 1.125 1.8125 0.6953125 3.92578125 C0.50710937 4.54839844 0.31890625 5.17101562 0.125 5.8125 C-0.81472656 5.90337891 -0.81472656 5.90337891 -1.7734375 5.99609375 C-2.59070313 6.07988281 -3.40796875 6.16367188 -4.25 6.25 C-5.06210938 6.33121094 -5.87421875 6.41242188 -6.7109375 6.49609375 C-8.91772805 6.70340114 -8.91772805 6.70340114 -10.875 7.8125 C-11.125 5.5 -11.125 5.5 -10.875 2.8125 C-7.93181411 -0.23969277 -3.89971237 -2.46981783 0 0 Z " fill="#E9132C" transform="translate(181.875,203.1875)"/>
<path d="M0 0 C1.00849558 2.01699115 2.01615982 4.03332963 3 6.0625 C4.07403709 8.23163505 4.07403709 8.23163505 6 11 C5.67 11.99 5.34 12.98 5 14 C4.34 14 3.68 14 3 14 C2.01 14.495 2.01 14.495 1 15 C0.34 14.67 -0.32 14.34 -1 14 C-1 13.01 -1 12.02 -1 11 C-1.66 11 -2.32 11 -3 11 C-3.6875 8.6875 -3.6875 8.6875 -4 6 C-2.625 4.375 -2.625 4.375 -1 3 C-0.67 2.01 -0.34 1.02 0 0 Z " fill="#E9122D" transform="translate(97,173)"/>
<path d="M0 0 C0 0.99 0 1.98 0 3 C-0.66 3.66 -1.32 4.32 -2 5 C-2.64767793 7.57061311 -2.64767793 7.57061311 -3 10 C-4.32 10 -5.64 10 -7 10 C-8.37310707 11.29233607 -9.71034824 12.62437146 -11 14 C-11.66 14 -12.32 14 -13 14 C-13 16.31 -13 18.62 -13 21 C-13.66 21 -14.32 21 -15 21 C-15.75 18.84375 -15.75 18.84375 -16 16 C-12.03708718 9.36974201 -6.53978169 4.03518445 0 0 Z " fill="#230305" transform="translate(119,99)"/>
<path d="M0 0 C1.134375 0.020625 2.26875 0.04125 3.4375 0.0625 C4.79189668 2.77129335 4.50251451 5.07183268 4.4375 8.0625 C-1.71484375 8.16015625 -1.71484375 8.16015625 -3.5625 8.0625 C-4.5625 7.0625 -4.5625 7.0625 -4.6875 4.0625 C-4.50687014 -0.27261656 -4.44520527 0.07798606 0 0 Z " fill="#D65865" transform="translate(120.5625,102.9375)"/>
<path d="M0 0 C1.0725 0.65484375 2.145 1.3096875 3.25 1.984375 C8.74464873 4.73169936 13.97708802 4.44598963 20 4.25 C21.06089844 4.23195312 22.12179688 4.21390625 23.21484375 4.1953125 C25.8108572 4.14853748 28.40493528 4.08301142 31 4 C31 4.99 31 5.98 31 7 C8.26822724 7.5133901 8.26822724 7.5133901 0 3 C0 2.01 0 1.02 0 0 Z " fill="#400407" transform="translate(130,200)"/>
<path d="M0 0 C1.32 0.33 2.64 0.66 4 1 C4 2.32 4 3.64 4 5 C4.66 5 5.32 5 6 5 C6 5.99 6 6.98 6 8 C9.57104439 6.12050295 11.54744301 4.82946843 13 1 C16 5.625 16 5.625 16 9 C15.34 9 14.68 9 14 9 C14 8.34 14 7.68 14 7 C10.33478106 8.9290626 8.6672132 10.22929351 7 14 C6.01780373 12.23084525 5.03934641 10.45961431 4.0625 8.6875 C3.51722656 7.70136719 2.97195312 6.71523437 2.41015625 5.69921875 C1 3 1 3 0 0 Z " fill="#CB1730" transform="translate(198,111)"/>
<path d="M0 0 C1.2065625 0.0309375 1.2065625 0.0309375 2.4375 0.0625 C3.25 3.3125 3.25 3.3125 3.4375 7.0625 C1.125 9.5 1.125 9.5 -1.5625 11.0625 C-2.2225 11.0625 -2.8825 11.0625 -3.5625 11.0625 C-3.58938151 9.41675434 -3.60884123 7.77088587 -3.625 6.125 C-3.63660156 5.20847656 -3.64820312 4.29195313 -3.66015625 3.34765625 C-3.52086326 0.08820018 -3.27895972 0.07997463 0 0 Z " fill="#DE152C" transform="translate(115.5625,92.9375)"/>
<path d="M0 0 C1.65 0 3.3 0 5 0 C4.690625 0.556875 4.38125 1.11375 4.0625 1.6875 C2.94238179 4.12540433 2.43962636 6.36224186 2 9 C2.99 9.66 3.98 10.32 5 11 C2.03 11 -0.94 11 -4 11 C-3.52269162 9.5410574 -3.04308958 8.08286504 -2.5625 6.625 C-2.29566406 5.81289062 -2.02882812 5.00078125 -1.75390625 4.1640625 C-1 2 -1 2 0 0 Z " fill="#E21731" transform="translate(154,79)"/>
<path d="M0 0 C4.75 0.75 4.75 0.75 7 3 C9.58354218 3.16687448 9.58354218 3.16687448 12 3 C12.33 3.66 12.66 4.32 13 5 C14.65 5 16.3 5 18 5 C17.01 7.31 16.02 9.62 15 12 C14.34 11.67 13.68 11.34 13 11 C13.33 10.34 13.66 9.68 14 9 C13.28457031 8.72414063 12.56914062 8.44828125 11.83203125 8.1640625 C9.04261145 7.01751478 6.37709642 5.73772885 3.6875 4.375 C2.80449219 3.92898437 1.92148438 3.48296875 1.01171875 3.0234375 C0.34785156 2.68570313 -0.31601563 2.34796875 -1 2 C-0.67 1.34 -0.34 0.68 0 0 Z " fill="#D2162C" transform="translate(172,91)"/>
<path d="M0 0 C0.99 1.32 1.98 2.64 3 4 C2.01 4 1.02 4 0 4 C-0.33 4.99 -0.66 5.98 -1 7 C-2.63260714 8.37482707 -4.30225062 9.70647667 -6 11 C-6.515625 11.556875 -7.03125 12.11375 -7.5625 12.6875 C-9.30897078 14.28210376 -10.72126846 14.50138185 -13 15 C-9.09489511 9.49280079 -4.90282356 4.64172645 0 0 Z " fill="#DA1933" transform="translate(129,163)"/>
<path d="M0 0 C2.08218362 -0.10832169 4.16599129 -0.18573541 6.25 -0.25 C7.99023438 -0.31960937 7.99023438 -0.31960937 9.765625 -0.390625 C13 0 13 0 15.421875 1.828125 C17 4 17 4 17 7 C16.01 7 15.02 7 14 7 C14 6.34 14 5.68 14 5 C13.360625 4.896875 12.72125 4.79375 12.0625 4.6875 C7.93522674 3.76096927 3.99357051 2.38339371 0 1 C0 0.67 0 0.34 0 0 Z " fill="#DC6777" transform="translate(211,8)"/>
<path d="M0 0 C1.4540625 0.0309375 1.4540625 0.0309375 2.9375 0.0625 C2.9375 2.7025 2.9375 5.3425 2.9375 8.0625 C-0.8125 9.1875 -0.8125 9.1875 -3.0625 8.0625 C-2.7325 7.0725 -2.4025 6.0825 -2.0625 5.0625 C-2.93733915 2.89534443 -2.93733915 2.89534443 -4.0625 1.0625 C-3.0625 0.0625 -3.0625 0.0625 0 0 Z " fill="#E4152D" transform="translate(102.0625,104.9375)"/>
<path d="M0 0 C1.9375 0.375 1.9375 0.375 4 1 C4.33 1.66 4.66 2.32 5 3 C3.8553125 2.8453125 3.8553125 2.8453125 2.6875 2.6875 C1.800625 2.790625 0.91375 2.89375 0 3 C-1.57378316 5.28873616 -1.57378316 5.28873616 -3 8 C-3.86625 8.680625 -4.7325 9.36125 -5.625 10.0625 C-8.10589629 12.08638908 -8.66695423 12.89157277 -9 16 C-10.32 15.67 -11.64 15.34 -13 15 C-12.31292969 14.25234375 -11.62585938 13.5046875 -10.91796875 12.734375 C-10.0077189 11.73966898 -9.09756787 10.74487252 -8.1875 9.75 C-7.73568359 9.25886719 -7.28386719 8.76773438 -6.81835938 8.26171875 C-4.39181973 5.60492352 -2.09650029 2.92534924 0 0 Z " fill="#390206" transform="translate(193,109)"/>
<path d="M0 0 C3.3 0.33 6.6 0.66 10 1 C10 1.33 10 1.66 10 2 C6.97265625 2.24414062 6.97265625 2.24414062 3.9453125 2.48828125 C1.60480784 2.87393036 1.60480784 2.87393036 0 6 C-0.32779919 8.25310077 -0.43937528 10.47325135 -0.55859375 12.74609375 C-1.09124905 15.46593541 -2.21821908 16.91412847 -4 19 C-3.58751372 12.18686447 -2.37562423 6.40385663 0 0 Z " fill="#D92238" transform="translate(88,121)"/>
<path d="M0 0 C0.33 0 0.66 0 1 0 C1.05840224 4.18744075 1.09373166 8.37477565 1.125 12.5625 C1.14175781 13.74392578 1.15851563 14.92535156 1.17578125 16.14257812 C1.2094585 22.15396759 1.11038894 27.34183122 -1 33 C-1.33 33 -1.66 33 -2 33 C-2.02689216 31.52093108 -2.04634621 30.04172517 -2.0625 28.5625 C-2.07410156 27.73878906 -2.08570313 26.91507813 -2.09765625 26.06640625 C-2 24 -2 24 -1 23 C-0.84259395 21.29436222 -0.74906608 19.58272756 -0.68359375 17.87109375 C-0.64169922 16.83662109 -0.59980469 15.80214844 -0.55664062 14.73632812 C-0.51732422 13.64771484 -0.47800781 12.55910156 -0.4375 11.4375 C-0.37272461 9.7987793 -0.37272461 9.7987793 -0.30664062 8.12695312 C-0.20017932 5.41810436 -0.09816484 2.70916008 0 0 Z " fill="#D21930" transform="translate(218,138)"/>
<path d="M0 0 C0.33 0.66 0.66 1.32 1 2 C3.31 2 5.62 2 8 2 C8.33 2.66 8.66 3.32 9 4 C7.68 4 6.36 4 5 4 C4.34 6.31 3.68 8.62 3 11 C2.67 11 2.34 11 2 11 C2 9.35 2 7.7 2 6 C0.35 6 -1.3 6 -3 6 C-2 4 -1 2 0 0 Z " fill="#E95C6E" transform="translate(121,98)"/>
<path d="M0 0 C3.67420866 0.30618405 4.78135513 0.75771784 7.3125 3.5625 C8.1478125 4.7690625 8.1478125 4.7690625 9 6 C7.02 6.99 7.02 6.99 5 8 C5 7.34 5 6.68 5 6 C3.68 6.33 2.36 6.66 1 7 C0.67 6.01 0.34 5.02 0 4 C-0.33 3.34 -0.66 2.68 -1 2 C-0.67 1.34 -0.34 0.68 0 0 Z " fill="#DD596C" transform="translate(37,38)"/>
<path d="M0 0 C1 3 1 3 -0.3125 5.6875 C-0.869375 6.450625 -1.42625 7.21375 -2 8 C-2.66 8 -3.32 8 -4 8 C-4 9.32 -4 10.64 -4 12 C-6.31 12.66 -8.62 13.32 -11 14 C-7.46386286 9.21224044 -3.85516296 4.53548584 0 0 Z " fill="#D72B40" transform="translate(158,130)"/>
<path d="M0 0 C1.98 0 3.96 0 6 0 C6.33 1.65 6.66 3.3 7 5 C4.69 5 2.38 5 0 5 C-0.33 6.98 -0.66 8.96 -1 11 C-1.99 10.34 -2.98 9.68 -4 9 C-2.80100302 5.9168649 -1.52299523 2.93720508 0 0 Z " fill="#D8626F" transform="translate(75,107)"/>
<path d="M0 0 C1.98 0 3.96 0 6 0 C6 0.66 6 1.32 6 2 C14.91 2 23.82 2 33 2 C33 2.33 33 2.66 33 3 C28.94328317 3.07431978 24.88683154 3.12868133 20.82958984 3.16479492 C19.45028782 3.17985422 18.07103347 3.20030613 16.69189453 3.22631836 C14.70626597 3.26282415 12.72028382 3.27814853 10.734375 3.29296875 C9.54038086 3.3086792 8.34638672 3.32438965 7.11621094 3.34057617 C3.76506629 2.97432368 2.42414608 2.2746046 0 0 Z " fill="#E56B78" transform="translate(14,7)"/>
<path d="M0 0 C2.97 0.495 2.97 0.495 6 1 C5.23883449 2.15227823 4.46567307 3.2966386 3.6875 4.4375 C3.25824219 5.07558594 2.82898438 5.71367187 2.38671875 6.37109375 C1 8 1 8 -2 9 C-2.25 3.375 -2.25 3.375 0 0 Z " fill="#D61A33" transform="translate(124,178)"/>
<path d="M0 0 C0.66 3.96 1.32 7.92 2 12 C1.01 11.01 0.02 10.02 -1 9 C-1 7.68 -1 6.36 -1 5 C-1.99 5.33 -2.98 5.66 -4 6 C-6.1875 5.0625 -6.1875 5.0625 -8 4 C-2.25 0 -2.25 0 0 0 Z " fill="#C21A33" transform="translate(119,88)"/>
<path d="M0 0 C1.32 0.33 2.64 0.66 4 1 C0.04 5.29 -3.92 9.58 -8 14 C-8 11.37886292 -7.68707555 9.49064888 -7 7 C-5.68 7 -4.36 7 -3 7 C-1.79371992 4.66785852 -0.8345262 2.50357861 0 0 Z " fill="#D33348" transform="translate(139,165)"/>
<path d="M0 0 C0.66 0 1.32 0 2 0 C2.226875 0.61875 2.45375 1.2375 2.6875 1.875 C4.37929835 4.61410209 5.99244161 5.05024472 9 6 C8.67 6.66 8.34 7.32 8 8 C7.443125 7.79375 6.88625 7.5875 6.3125 7.375 C3.340462 6.89304789 1.68020059 7.73434972 -1 9 C-0.67 6.03 -0.34 3.06 0 0 Z " fill="#E86374" transform="translate(146,66)"/>
<path d="M0 0 C1.61121645 4.50101112 -0.02182398 7.3672468 -1.80859375 11.58203125 C-3.19853895 14.40293643 -4.85554562 16.7023703 -7 19 C-6.21824485 14.15311808 -4.60155722 9.6233633 -3 5 C-2.34 5 -1.68 5 -1 5 C-0.67 3.35 -0.34 1.7 0 0 Z " fill="#300002" transform="translate(207,162)"/>
<path d="M0 0 C0.7734375 0.3403125 0.7734375 0.3403125 1.5625 0.6875 C-2.19301164 4.44301164 -8.51844444 5.44257924 -13.71875 5.87890625 C-15.29295683 5.87568042 -16.86677649 5.7922149 -18.4375 5.6875 C-18.4375 5.3575 -18.4375 5.0275 -18.4375 4.6875 C-17.58478516 4.52314453 -17.58478516 4.52314453 -16.71484375 4.35546875 C-12.81366885 3.55439277 -9.23432293 2.71050521 -5.625 1 C-2.4375 -0.3125 -2.4375 -0.3125 0 0 Z " fill="#D03044" transform="translate(180.4375,200.3125)"/>
<path d="M0 0 C0.75 1.75 0.75 1.75 1 4 C-1.21867135 6.77333918 -2.60620325 7.86873442 -6 9 C-6.33 9.66 -6.66 10.32 -7 11 C-7.66 10.67 -8.32 10.34 -9 10 C-7.8758824 8.70756532 -6.75067408 7.41607925 -5.625 6.125 C-4.99851563 5.40570313 -4.37203125 4.68640625 -3.7265625 3.9453125 C-2.52573166 2.5923402 -1.2791655 1.2791655 0 0 Z " fill="#2F0104" transform="translate(179,125)"/>
<path d="M0 0 C0.66 0 1.32 0 2 0 C0.25 4.875 0.25 4.875 -2 6 C-4.6723621 6.13415472 -7.32250488 6.04318541 -10 6 C-10.33 5.34 -10.66 4.68 -11 4 C-8.69 4 -6.38 4 -4 4 C-3.67 3.34 -3.34 2.68 -3 2 C-2.01 2.33 -1.02 2.66 0 3 C0 2.01 0 1.02 0 0 Z " fill="#E37D89" transform="translate(226,222)"/>
<path d="M0 0 C1.65 0.33 3.3 0.66 5 1 C1.72654007 4.27345993 -2.7972852 4.88053072 -7.3046875 5.125 C-9.20358219 5.125 -11.10231518 5.06777446 -13 5 C-13 4.67 -13 4.34 -13 4 C-4.57142857 1.71428571 -4.57142857 1.71428571 0 2 C0 1.34 0 0.68 0 0 Z " fill="#D02D44" transform="translate(173,211)"/>
<path d="M0 0 C0 0.33 0 0.66 0 1 C-5.62257161 2.9169573 -10.52369385 3.24889924 -16.4375 3.125 C-17.26443359 3.11597656 -18.09136719 3.10695312 -18.94335938 3.09765625 C-20.96236708 3.07431512 -22.98122356 3.03845288 -25 3 C-25 2.67 -25 2.34 -25 2 C-23.41058594 1.90912109 -23.41058594 1.90912109 -21.7890625 1.81640625 C-20.40102779 1.73199873 -19.01300768 1.64735083 -17.625 1.5625 C-16.92632812 1.52318359 -16.22765625 1.48386719 -15.5078125 1.44335938 C-10.03054718 1.10103029 -5.5949148 -0.09024056 0 0 Z " fill="#D9192F" transform="translate(169,206)"/>
<path d="M0 0 C0.66 0 1.32 0 2 0 C3.18681726 3.56045177 3.09689832 6.43808337 3.0625 10.1875 C3.05347656 11.45980469 3.04445313 12.73210937 3.03515625 14.04296875 C3.02355469 15.01878906 3.01195313 15.99460938 3 17 C2.67 17 2.34 17 2 17 C1.34 11.39 0.68 5.78 0 0 Z " fill="#C11A2F" transform="translate(83,150)"/>
<path d="M0 0 C0.33 0.66 0.66 1.32 1 2 C0.67 2.66 0.34 3.32 0 4 C1.32 3.34 2.64 2.68 4 2 C3.67 3.65 3.34 5.3 3 7 C0.69 7 -1.62 7 -4 7 C-2.68 4.69 -1.36 2.38 0 0 Z " fill="#DD5363" transform="translate(140,73)"/>
<path d="M0 0 C0.33 0 0.66 0 1 0 C1.517487 2.84617849 1.34894002 4.49283192 -0.30078125 6.890625 C-1.81279921 8.6660733 -3.31852091 10.38373063 -5 12 C-5.33 12 -5.66 12 -6 12 C-6 9.69 -6 7.38 -6 5 C-4.35 4.67 -2.7 4.34 -1 4 C-0.67 2.68 -0.34 1.36 0 0 Z " fill="#C62C40" transform="translate(111,100)"/>
<path d="M0 0 C-0.55105909 3.9492568 -1.38935371 7.34920174 -3 11 C-4.25541557 7.23375329 -3.37061958 5.62811066 -2 2 C-2.66 2 -3.32 2 -4 2 C-4.33 2.66 -4.66 3.32 -5 4 C-6.65 3.67 -8.3 3.34 -10 3 C-10 2.34 -10 1.68 -10 1 C-2.25 0 -2.25 0 0 0 Z " fill="#D5283D" transform="translate(145,79)"/>
<path d="M0 0 C0.66 0 1.32 0 2 0 C2 4.62 2 9.24 2 14 C1.34 13.67 0.68 13.34 0 13 C0.33 10.03 0.66 7.06 1 4 C-0.65 4.33 -2.3 4.66 -4 5 C-2.71937515 3.2925002 -1.38232443 1.62626404 0 0 Z " fill="#3C1719" transform="translate(123,186)"/>
<path d="M0 0 C2 3 2 3 1.625 5.6875 C1.41875 6.450625 1.2125 7.21375 1 8 C0.67 8 0.34 8 0 8 C-0.33 9.65 -0.66 11.3 -1 13 C-1.33 13 -1.66 13 -2 13 C-2 9.04 -2 5.08 -2 1 C-1.34 0.67 -0.68 0.34 0 0 Z " fill="#EB9A9F" transform="translate(8,12)"/>
<path d="M0 0 C-1.9645126 1.9645126 -5.67592851 1.36454474 -8.375 1.5 C-13.76355137 1.75276441 -13.76355137 1.75276441 -19 3 C-19.66 2.01 -20.32 1.02 -21 0 C-17.87549468 -0.19645093 -14.75038555 -0.38063489 -11.625 -0.5625 C-10.29082031 -0.64661133 -10.29082031 -0.64661133 -8.9296875 -0.73242188 C-7.65351563 -0.80493164 -7.65351563 -0.80493164 -6.3515625 -0.87890625 C-5.56604004 -0.9260376 -4.78051758 -0.97316895 -3.97119141 -1.02172852 C-2 -1 -2 -1 0 0 Z " fill="#310B0E" transform="translate(159,111)"/>
<path d="M0 0 C3.97638733 2.8718353 6.51530859 5.76682204 9 10 C9 10.66 9 11.32 9 12 C7.68 11.67 6.36 11.34 5 11 C5 9.68 5 8.36 5 7 C4.34 7 3.68 7 3 7 C0 2.61538462 0 2.61538462 0 0 Z " fill="#BA182D" transform="translate(201,100)"/>
<path d="M0 0 C0.33 0 0.66 0 1 0 C1.06058594 0.84304687 1.12117188 1.68609375 1.18359375 2.5546875 C1.26738281 3.65039062 1.35117188 4.74609375 1.4375 5.875 C1.51871094 6.96554688 1.59992188 8.05609375 1.68359375 9.1796875 C1.83001703 11.94728971 1.83001703 11.94728971 3 14 C0.69 14 -1.62 14 -4 14 C-4 13.34 -4 12.68 -4 12 C-3.01 11.67 -2.02 11.34 -1 11 C-0.67 7.37 -0.34 3.74 0 0 Z " fill="#E87A86" transform="translate(126,86)"/>
<path d="M0 0 C0 0.99 0 1.98 0 3 C-0.66 3.66 -1.32 4.32 -2 5 C-2.64767793 7.57061311 -2.64767793 7.57061311 -3 10 C-3.33 8.68 -3.66 7.36 -4 6 C-5.65 6.66 -7.3 7.32 -9 8 C-6.14723863 5.06799526 -3.34920216 2.35684596 0 0 Z " fill="#540A0F" transform="translate(119,99)"/>
<path d="M0 0 C3.28788824 3.11016455 5.83735988 6.01618925 8 10 C6.35 9.67 4.7 9.34 3 9 C2.67 7.35 2.34 5.7 2 4 C1.34 4 0.68 4 0 4 C0 2.68 0 1.36 0 0 Z " fill="#320104" transform="translate(94,186)"/>
<path d="M0 0 C4.74683544 5.69620253 4.74683544 5.69620253 6 9 C5.67 9.66 5.34 10.32 5 11 C4.34 11 3.68 11 3 11 C2.67 8.69 2.34 6.38 2 4 C1.34 4 0.68 4 0 4 C0 2.68 0 1.36 0 0 Z " fill="#C4162E" transform="translate(100,176)"/>
<path d="M0 0 C0.99 0.66 1.98 1.32 3 2 C1.625 3.5 1.625 3.5 0 5 C-0.66 5 -1.32 5 -2 5 C-2 5.66 -2 6.32 -2 7 C-3.32 7.33 -4.64 7.66 -6 8 C-4.02 5.36 -2.04 2.72 0 0 Z " fill="#C7172F" transform="translate(115,178)"/>
<path d="M0 0 C1.58409994 0.11487748 3.16728963 0.24234508 4.75 0.375 C6.07257813 0.47941406 6.07257813 0.47941406 7.421875 0.5859375 C9.99066382 0.99850055 11.75841015 1.71160957 14 3 C12.41705218 3.05437607 10.83355744 3.09296271 9.25 3.125 C8.36828125 3.14820312 7.4865625 3.17140625 6.578125 3.1953125 C3.8864142 2.99139502 2.30095026 2.36551721 0 1 C0 0.67 0 0.34 0 0 Z " fill="#E0707F" transform="translate(74,118)"/>
<path d="M0 0 C1 3 1 3 1 7 C2.65 7.33 4.3 7.66 6 8 C6 8.33 6 8.66 6 9 C3.03 9 0.06 9 -3 9 C-2.01 6.03 -1.02 3.06 0 0 Z " fill="#DA3147" transform="translate(153,81)"/>
<path d="M0 0 C0 3.35279018 -0.35469584 5.08332445 -2 8 C-5.125 9.3125 -5.125 9.3125 -8 10 C-7.04367001 8.70684939 -6.08486149 7.41553147 -5.125 6.125 C-4.59132813 5.40570313 -4.05765625 4.68640625 -3.5078125 3.9453125 C-2 2 -2 2 0 0 Z " fill="#BB1931" transform="translate(124,168)"/>
<path d="M0 0 C0.94875 0.04125 1.8975 0.0825 2.875 0.125 C1.885 0.62 1.885 0.62 0.875 1.125 C0.545 2.115 0.215 3.105 -0.125 4.125 C-2.105 4.455 -4.085 4.785 -6.125 5.125 C-4.7964923 1.13947691 -4.27916485 0.17116659 0 0 Z " fill="#C11E36" transform="translate(184.125,206.875)"/>
<path d="M0 0 C0.99 0.33 1.98 0.66 3 1 C1.68 3.64 0.36 6.28 -1 9 C-1.66 9 -2.32 9 -3 9 C-3 8.01 -3 7.02 -3 6 C-2.34 6 -1.68 6 -1 6 C-1.0309375 4.7934375 -1.0309375 4.7934375 -1.0625 3.5625 C-1 1 -1 1 0 0 Z " fill="#CB182F" transform="translate(207,183)"/>
<path d="M0 0 C3.63 1.65 7.26 3.3 11 5 C5.86057616 6.28485596 4.62164416 5.22194431 0 3 C0 2.01 0 1.02 0 0 Z " fill="#53080E" transform="translate(130,200)"/>
<path d="M0 0 C0.33 0 0.66 0 1 0 C1.75 2.625 1.75 2.625 2 6 C0.0625 9.375 0.0625 9.375 -2 12 C-3.40907283 9.18185434 -2.50872691 7.82722796 -1.5625 4.875 C-1.27503906 3.96492187 -0.98757812 3.05484375 -0.69140625 2.1171875 C-0.46324219 1.41851562 -0.23507813 0.71984375 0 0 Z " fill="#3A0206" transform="translate(218,164)"/>
<path d="M0 0 C2.45823172 3.68734758 3.01242616 6.69699971 4 11 C3.34 11 2.68 11 2 11 C-0.67927341 6.98108988 -0.15601248 4.75838077 0 0 Z " fill="#BA1B31" transform="translate(94,160)"/>
<path d="M0 0 C1.65 1.65 3.3 3.3 5 5 C4.01 5.66 3.02 6.32 2 7 C-0.6875 6.125 -0.6875 6.125 -3 5 C-2.505 4.54625 -2.01 4.0925 -1.5 3.625 C0.22609337 2.12364481 0.22609337 2.12364481 0 0 Z " fill="#D65867" transform="translate(105,120)"/>
<path d="M0 0 C1.32 0.66 2.64 1.32 4 2 C4 2.33 4 2.66 4 3 C2.35 3.33 0.7 3.66 -1 4 C-1.33 4.99 -1.66 5.98 -2 7 C-2.99 6.67 -3.98 6.34 -5 6 C-4.34 5.67 -3.68 5.34 -3 5 C-2.30062468 3.68352881 -1.63270867 2.34977849 -1 1 C-0.67 0.67 -0.34 0.34 0 0 Z " fill="#B82234" transform="translate(100,102)"/>
<path d="M0 0 C0.66 1.32 1.32 2.64 2 4 C-0.66666667 5.33333333 -3.33333333 6.66666667 -6 8 C-4.55746343 4.63408134 -2.66735273 2.48952921 0 0 Z " fill="#CF2A40" transform="translate(146,144)"/>
<path d="M0 0 C3 1 3 1 4 3 C4.99 3.33 5.98 3.66 7 4 C7.6875 6.0625 7.6875 6.0625 8 8 C7.01 8 6.02 8 5 8 C3.61328125 6.25 3.61328125 6.25 2.3125 4 C1.87550781 3.2575 1.43851562 2.515 0.98828125 1.75 C0.66214844 1.1725 0.33601563 0.595 0 0 Z " fill="#D25968" transform="translate(70,134)"/>
<path d="M0 0 C1.98 0 3.96 0 6 0 C6.33 1.65 6.66 3.3 7 5 C4.69 4.01 2.38 3.02 0 2 C0 1.34 0 0.68 0 0 Z " fill="#E76170" transform="translate(75,107)"/>
<path d="M0 0 C-1.49836105 3.11198065 -3.19933758 6.0534615 -5 9 C-6 6 -6 6 -5.1875 3.375 C-3.78269094 0.56538188 -3.13077071 0 0 0 Z " fill="#D75D6D" transform="translate(170,93)"/>
<path d="M0 0 C3.24208567 0.35049575 4.61527704 0.56221181 6.8125 3.0625 C7.204375 3.701875 7.59625 4.34125 8 5 C5.03 4.01 2.06 3.02 -1 2 C-0.67 1.34 -0.34 0.68 0 0 Z " fill="#C51930" transform="translate(172,91)"/>
<path d="M0 0 C2.97 0.33 5.94 0.66 9 1 C9 1.99 9 2.98 9 4 C6.03 3.01 3.06 2.02 0 1 C0 0.67 0 0.34 0 0 Z " fill="#B8182F" transform="translate(122,210)"/>
<path d="M0 0 C2.0625 0.4375 2.0625 0.4375 4 1 C1.03 3.475 1.03 3.475 -2 6 C-1.125 1.125 -1.125 1.125 0 0 Z " fill="#320105" transform="translate(162,123)"/>
<path d="M0 0 C0.66 0 1.32 0 2 0 C1.67 2.31 1.34 4.62 1 7 C0.01 7.33 -0.98 7.66 -2 8 C-2.66 7.67 -3.32 7.34 -4 7 C-4 6.34 -4 5.68 -4 5 C-3.01 4.67 -2.02 4.34 -1 4 C-0.26676204 1.98491642 -0.26676204 1.98491642 0 0 Z " fill="#E26C7A" transform="translate(138,93)"/>
<path d="M0 0 C2.97 0.33 5.94 0.66 9 1 C9.33 2.32 9.66 3.64 10 5 C5 3 5 3 0 1 C0 0.67 0 0.34 0 0 Z " fill="#370105" transform="translate(178,84)"/>
<path d="M0 0 C0.33 0.99 0.66 1.98 1 3 C0.01 4.485 0.01 4.485 -1 6 C-1.66 6 -2.32 6 -3 6 C-3 6.66 -3 7.32 -3 8 C-3.66 8 -4.32 8 -5 8 C-3.62845496 5.04590299 -2.01136276 2.55991624 0 0 Z " fill="#C25261" transform="translate(155,54)"/>
<path d="M0 0 C2 1.3125 2 1.3125 4 3 C4 3.99 4 4.98 4 6 C3.01 6 2.02 6 1 6 C1 5.34 1 4.68 1 4 C0.34 4 -0.32 4 -1 4 C-0.67 2.68 -0.34 1.36 0 0 Z " fill="#E57F90" transform="translate(224,9)"/>
<path d="M0 0 C1.32 1.32 2.64 2.64 4 4 C3.34 4 2.68 4 2 4 C2 4.66 2 5.32 2 6 C1.34 6 0.68 6 0 6 C-0.38218767 4.34385343 -0.71395102 2.67542976 -1 1 C-0.67 0.67 -0.34 0.34 0 0 Z " fill="#CA5D6C" transform="translate(11,221)"/>
<path d="M0 0 C0.66 0.33 1.32 0.66 2 1 C0.29374499 3.78388975 -0.47626739 4.85384206 -3.6875 5.75 C-4.8321875 5.87375 -4.8321875 5.87375 -6 6 C-6 5.34 -6 4.68 -6 4 C-4.03852126 2.61061923 -2.03833424 1.2739589 0 0 Z " fill="#340204" transform="translate(191,204)"/>
<path d="M0 0 C0.33 0 0.66 0 1 0 C1.25 2.25 1.25 2.25 1 5 C-1 7.3125 -1 7.3125 -3 9 C-3.66 8.67 -4.32 8.34 -5 8 C-4.19185349 6.66402348 -3.37836819 5.331275 -2.5625 4 C-2.11003906 3.2575 -1.65757812 2.515 -1.19140625 1.75 C-0.79824219 1.1725 -0.40507812 0.595 0 0 Z " fill="#3F0307" transform="translate(211,182)"/>
<path d="M0 0 C1.875 0.625 1.875 0.625 4 2 C5.25 5.125 5.25 5.125 6 8 C1.125 3.375 1.125 3.375 0 0 Z " fill="#CB5869" transform="translate(42,97)"/>
<path d="M0 0 C2.0625 0.4375 2.0625 0.4375 4 1 C3.01 1.495 3.01 1.495 2 2 C1.53348793 4.12576782 1.53348793 4.12576782 1.375 6.5625 C1.30023438 7.38878906 1.22546875 8.21507813 1.1484375 9.06640625 C1.09945312 9.70449219 1.05046875 10.34257813 1 11 C0.67 11 0.34 11 0 11 C-0.19406478 9.35492782 -0.38007935 7.70890406 -0.5625 6.0625 C-0.66691406 5.14597656 -0.77132812 4.22945313 -0.87890625 3.28515625 C-0.91886719 2.53105469 -0.95882812 1.77695313 -1 1 C-0.67 0.67 -0.34 0.34 0 0 Z " fill="#BC2033" transform="translate(127,83)"/>
<path d="" fill="#FFFFFF" transform="translate(0,0)"/>
</svg>
